<?xml version="1.0" encoding="iso-8859-1"?>
<!-- Generator: Adobe Illustrator 19.0.0, SVG Export Plug-In . SVG Version: 6.00 Build 0)  -->
<svg version="1.1" id="Layer_1" xmlns="http://www.w3.org/2000/svg" xmlns:xlink="http://www.w3.org/1999/xlink" x="0px" y="0px"
	 viewBox="0 0 330 330" style="enable-background:new 0 0 330 330;" xml:space="preserve">
<g id="XMLID_516_">
	<path id="XMLID_517_" d="M15,60h300c8.284,0,15-6.716,15-15s-6.716-15-15-15H15C6.716,30,0,36.716,0,45S6.716,60,15,60z"/>
	<path id="XMLID_518_" d="M55,90c-8.284,0-15,6.716-15,15s6.716,15,15,15h220c8.284,0,15-6.716,15-15s-6.716-15-15-15H55z"/>
	<path id="XMLID_519_" d="M315,150H15c-8.284,0-15,6.716-15,15s6.716,15,15,15h300c8.284,0,15-6.716,15-15S323.284,150,315,150z"/>
	<path id="XMLID_520_" d="M315,270H15c-8.284,0-15,6.716-15,15s6.716,15,15,15h300c8.284,0,15-6.716,15-15S323.284,270,315,270z"/>
	<path id="XMLID_521_" d="M275,240c8.284,0,15-6.716,15-15s-6.716-15-15-15H55c-8.284,0-15,6.716-15,15s6.716,15,15,15H275z"/>
</g>
<g>
</g>
<g>
</g>
<g>
</g>
<g>
</g>
<g>
</g>
<g>
</g>
<g>
</g>
<g>
</g>
<g>
</g>
<g>
</g>
<g>
</g>
<g>
</g>
<g>
</g>
<g>
</g>
<g>
</g>
</svg>
