<?xml version="1.0" encoding="iso-8859-1"?>
<!-- Generator: Adobe Illustrator 19.0.0, SVG Export Plug-In . SVG Version: 6.00 Build 0)  -->
<svg version="1.1" id="Layer_1" xmlns="http://www.w3.org/2000/svg" xmlns:xlink="http://www.w3.org/1999/xlink" x="0px" y="0px"
	 viewBox="0 0 330 330" style="enable-background:new 0 0 330 330;" xml:space="preserve">
<g id="XMLID_351_">
	<path id="XMLID_352_" d="M235,0H35c-8.284,0-15,6.716-15,15v240c0,8.284,6.716,15,15,15h15v-30V30h55.751H220h30V15
		C250,6.716,243.284,0,235,0z"/>
	<polygon id="XMLID_439_" points="220,88.787 200,68.787 200,111.213 200,170 258.787,170 301.214,170 250,118.787 	"/>
	<path id="XMLID_440_" d="M95,330h200c8.284,0,15-6.716,15-15V200h-8.786H280h-21.213H200h-15c-8.284,0-15-6.716-15-15v-15v-58.787
		V90V68.787V60h-64.249H95c-8.284,0-15,6.716-15,15v165v30v37.883V315C80,323.284,86.716,330,95,330z"/>
</g>
<g>
</g>
<g>
</g>
<g>
</g>
<g>
</g>
<g>
</g>
<g>
</g>
<g>
</g>
<g>
</g>
<g>
</g>
<g>
</g>
<g>
</g>
<g>
</g>
<g>
</g>
<g>
</g>
<g>
</g>
</svg>
