<?xml version="1.0" encoding="iso-8859-1"?>
<!-- Generator: Adobe Illustrator 19.0.0, SVG Export Plug-In . SVG Version: 6.00 Build 0)  -->
<svg version="1.1" id="Layer_1" xmlns="http://www.w3.org/2000/svg" xmlns:xlink="http://www.w3.org/1999/xlink" x="0px" y="0px"
	 viewBox="0 0 367 367" style="enable-background:new 0 0 367 367;" xml:space="preserve">
<g id="XMLID_221_">
	<path id="XMLID_222_" d="M175,252.501c-8.285,0-15-6.716-15-15c0-8.284,6.716-15,15-15l65,0.001h30v-16V158.5h-30h-21.213H145
		c-8.283,0-15-6.716-15-15V69.713V48.5v-30H15c-8.283,0-15,6.716-15,15v300c0,8.284,6.717,15,15,15h240c8.285,0,15-6.716,15-15
		v-50.332v-30.666h-30L175,252.501z"/>
	<path id="XMLID_223_" d="M366.925,236.023c-0.022-0.225-0.064-0.442-0.096-0.664c-0.038-0.263-0.068-0.526-0.12-0.786
		c-0.051-0.254-0.119-0.499-0.182-0.747c-0.058-0.226-0.107-0.453-0.175-0.677c-0.073-0.242-0.164-0.477-0.249-0.713
		c-0.081-0.225-0.155-0.452-0.246-0.674c-0.092-0.221-0.199-0.432-0.301-0.646c-0.107-0.23-0.209-0.46-0.329-0.684
		c-0.11-0.205-0.235-0.4-0.355-0.6c-0.132-0.221-0.257-0.443-0.4-0.658c-0.146-0.219-0.31-0.425-0.467-0.635
		c-0.136-0.182-0.262-0.368-0.406-0.544c-0.3-0.365-0.616-0.714-0.948-1.049c-0.016-0.016-0.028-0.033-0.045-0.05l-37.499-37.501
		c-5.857-5.857-15.355-5.857-21.213,0c-5.858,5.857-5.858,15.355-0.001,21.213l11.893,11.895h-19.641H270v30h12.813h32.974
		l-11.893,11.893c-5.858,5.858-5.858,15.355,0,21.213c2.928,2.93,6.768,4.394,10.606,4.394c3.84,0,7.678-1.464,10.607-4.394
		l37.498-37.499c0.008-0.008,0.014-0.017,0.022-0.023c0.342-0.343,0.665-0.701,0.972-1.075c0.146-0.177,0.272-0.364,0.409-0.547
		c0.156-0.209,0.318-0.414,0.465-0.632c0.145-0.216,0.27-0.441,0.402-0.662c0.117-0.198,0.242-0.392,0.352-0.596
		c0.121-0.225,0.223-0.458,0.332-0.688c0.101-0.213,0.207-0.423,0.298-0.643c0.093-0.223,0.167-0.451,0.248-0.678
		c0.085-0.234,0.175-0.467,0.247-0.708c0.068-0.225,0.119-0.454,0.176-0.683c0.063-0.246,0.132-0.49,0.182-0.741
		c0.052-0.261,0.082-0.524,0.12-0.788c0.032-0.221,0.073-0.438,0.096-0.663c0.048-0.485,0.073-0.973,0.073-1.46
		c0-0.007,0.002-0.014,0.002-0.02c0-0.008-0.002-0.017-0.002-0.025C366.998,236.991,366.973,236.506,366.925,236.023z"/>
	<polygon id="XMLID_224_" points="261.214,128.5 160,27.287 160,69.713 160,128.5 218.787,128.5 	"/>
</g>
<g>
</g>
<g>
</g>
<g>
</g>
<g>
</g>
<g>
</g>
<g>
</g>
<g>
</g>
<g>
</g>
<g>
</g>
<g>
</g>
<g>
</g>
<g>
</g>
<g>
</g>
<g>
</g>
<g>
</g>
</svg>
