<?xml version="1.0" encoding="iso-8859-1"?>
<!-- Generator: Adobe Illustrator 19.0.0, SVG Export Plug-In . SVG Version: 6.00 Build 0)  -->
<svg version="1.1" id="Layer_1" xmlns="http://www.w3.org/2000/svg" xmlns:xlink="http://www.w3.org/1999/xlink" x="0px" y="0px"
	 viewBox="0 0 330 330" style="enable-background:new 0 0 330 330;" xml:space="preserve">
<g id="XMLID_441_">
	<polygon id="XMLID_443_" points="191.997,108 248.786,108 291.213,108 191.997,8.786 191.997,51.213 	"/>
	<path id="XMLID_444_" d="M30,15v300c0,8.284,6.716,15,15,15h240c8.284,0,15-6.716,15-15V138h-30h-21.214h-71.789
		c-8.284,0-15-6.716-15-15V51.213V30V0H45C36.716,0,30,6.716,30,15z M115,180h100c8.284,0,15,6.716,15,15s-6.716,15-15,15H115
		c-8.284,0-15-6.716-15-15S106.716,180,115,180z M115,240h100c8.284,0,15,6.716,15,15c0,8.284-6.716,15-15,15H115
		c-8.284,0-15-6.716-15-15C100,246.716,106.716,240,115,240z"/>
</g>
<g>
</g>
<g>
</g>
<g>
</g>
<g>
</g>
<g>
</g>
<g>
</g>
<g>
</g>
<g>
</g>
<g>
</g>
<g>
</g>
<g>
</g>
<g>
</g>
<g>
</g>
<g>
</g>
<g>
</g>
</svg>
