<?xml version="1.0" encoding="iso-8859-1"?>
<!-- Generator: Adobe Illustrator 19.0.0, SVG Export Plug-In . SVG Version: 6.00 Build 0)  -->
<svg version="1.1" id="Layer_1" xmlns="http://www.w3.org/2000/svg" xmlns:xlink="http://www.w3.org/1999/xlink" x="0px" y="0px"
	 viewBox="0 0 330 330" style="enable-background:new 0 0 330 330;" xml:space="preserve">
<g id="XMLID_242_">
	<path id="XMLID_243_" d="M315,15H195c-8.284,0-15,6.716-15,15v15H75c-8.284,0-15,6.716-15,15v15h30h45.729H255
		c19.399,0,36.556,12.365,42.69,30.77l32.31,96.93V30C330,21.716,323.284,15,315,15z"/>
	<path id="XMLID_244_" d="M255,105H135.729H90H60H17.548H15c-4.821,0-9.35,2.318-12.169,6.229c-2.819,3.911-3.586,8.94-2.062,13.514
		l60,180C62.812,310.869,68.544,315,75,315h240c0.571,0,1.133-0.039,1.689-0.102c0.149-0.017,0.294-0.046,0.442-0.067
		c0.413-0.059,0.821-0.129,1.223-0.221c0.16-0.036,0.316-0.08,0.475-0.122c0.391-0.104,0.773-0.219,1.149-0.352
		c0.15-0.054,0.3-0.107,0.449-0.165c0.39-0.151,0.771-0.32,1.144-0.503c0.123-0.061,0.248-0.114,0.368-0.178
		c0.476-0.248,0.939-0.517,1.382-0.813c0.012-0.008,0.023-0.014,0.034-0.021c0.454-0.305,0.888-0.638,1.306-0.99
		c0.122-0.103,0.236-0.216,0.355-0.322c0.287-0.26,0.566-0.525,0.834-0.805c0.131-0.139,0.258-0.279,0.384-0.423
		c0.254-0.287,0.495-0.585,0.728-0.892c0.066-0.088,0.143-0.165,0.207-0.255c0.035-0.049,0.063-0.103,0.097-0.151
		c0.283-0.402,0.547-0.818,0.79-1.248c0.027-0.047,0.06-0.092,0.086-0.14c0.272-0.495,0.516-1.008,0.732-1.535
		c0.031-0.076,0.055-0.155,0.085-0.231c0.17-0.433,0.32-0.873,0.45-1.324c0.043-0.151,0.078-0.304,0.117-0.457
		c0.095-0.375,0.177-0.754,0.243-1.141c0.032-0.189,0.062-0.377,0.087-0.566c0.046-0.351,0.076-0.704,0.099-1.063
		c0.013-0.211,0.027-0.42,0.032-0.631c0.001-0.096,0.014-0.188,0.014-0.283v-2.434l-60.77-182.31
		C267.189,109.131,261.457,105,255,105z"/>
</g>
<g>
</g>
<g>
</g>
<g>
</g>
<g>
</g>
<g>
</g>
<g>
</g>
<g>
</g>
<g>
</g>
<g>
</g>
<g>
</g>
<g>
</g>
<g>
</g>
<g>
</g>
<g>
</g>
<g>
</g>
</svg>
