<?xml version="1.0" encoding="iso-8859-1"?>
<!-- Generator: Adobe Illustrator 19.0.0, SVG Export Plug-In . SVG Version: 6.00 Build 0)  -->
<svg version="1.1" id="Layer_1" xmlns="http://www.w3.org/2000/svg" xmlns:xlink="http://www.w3.org/1999/xlink" x="0px" y="0px"
	 viewBox="0 0 330 330" style="enable-background:new 0 0 330 330;" xml:space="preserve">
<g id="XMLID_225_">
	<path id="XMLID_226_" d="M181.213,233.999l11.895,11.895c5.857,5.858,5.857,15.355-0.001,21.214
		c-2.929,2.928-6.769,4.393-10.606,4.393c-3.84,0-7.678-1.465-10.607-4.394l-37.5-37.501c-0.024-0.025-0.046-0.053-0.07-0.078
		c-0.318-0.322-0.624-0.657-0.912-1.008c-0.086-0.105-0.16-0.219-0.244-0.325c-0.217-0.28-0.435-0.56-0.632-0.855
		c-0.064-0.095-0.116-0.196-0.179-0.293c-0.201-0.316-0.4-0.637-0.579-0.969c-0.037-0.069-0.066-0.143-0.103-0.211
		c-0.188-0.366-0.369-0.736-0.527-1.118c-0.02-0.047-0.033-0.096-0.053-0.143c-0.163-0.405-0.314-0.815-0.442-1.237
		c-0.015-0.049-0.024-0.1-0.038-0.149c-0.123-0.417-0.233-0.838-0.319-1.268c-0.024-0.123-0.036-0.25-0.058-0.375
		c-0.062-0.357-0.125-0.714-0.16-1.079c-0.051-0.496-0.076-0.995-0.076-1.498c0-0.503,0.025-1.002,0.076-1.497
		c0.035-0.365,0.099-0.723,0.16-1.08c0.021-0.125,0.033-0.252,0.058-0.375c0.085-0.426,0.194-0.842,0.315-1.254
		c0.016-0.055,0.025-0.111,0.043-0.166c0.127-0.418,0.277-0.826,0.439-1.229c0.02-0.05,0.035-0.102,0.055-0.15
		c0.157-0.378,0.336-0.744,0.522-1.105c0.038-0.073,0.069-0.15,0.108-0.224c0.176-0.328,0.372-0.643,0.571-0.955
		c0.065-0.102,0.12-0.207,0.187-0.308c0.19-0.283,0.4-0.553,0.609-0.822c0.092-0.118,0.172-0.242,0.268-0.357
		c0.26-0.316,0.539-0.616,0.823-0.91c0.055-0.057,0.102-0.118,0.158-0.174l37.5-37.5c5.858-5.857,15.354-5.856,21.214,0.001
		c5.857,5.858,5.857,15.355-0.001,21.214l-11.893,11.892L240,204h30v-15.954V140h-30h-21.213H145c-8.284,0-15-6.716-15-15V51.213V30
		V0H15C6.716,0,0,6.716,0,15v300c0,8.284,6.716,15,15,15h240c8.284,0,15-6.716,15-15v-40.089V234h-30L181.213,233.999z"/>
	<polygon id="XMLID_227_" points="261.213,110 160,8.787 160,51.213 160,110 218.787,110 	"/>
	<path id="XMLID_228_" d="M315,204h-2.335H270v30h32.723H315c8.283,0,15-6.717,15-15C330,210.716,323.284,204,315,204z"/>
</g>
<g>
</g>
<g>
</g>
<g>
</g>
<g>
</g>
<g>
</g>
<g>
</g>
<g>
</g>
<g>
</g>
<g>
</g>
<g>
</g>
<g>
</g>
<g>
</g>
<g>
</g>
<g>
</g>
<g>
</g>
</svg>
