<?xml version="1.0" encoding="iso-8859-1"?>
<!-- Generator: Adobe Illustrator 19.0.0, SVG Export Plug-In . SVG Version: 6.00 Build 0)  -->
<svg version="1.1" id="Layer_1" xmlns="http://www.w3.org/2000/svg" xmlns:xlink="http://www.w3.org/1999/xlink" x="0px" y="0px"
	 viewBox="0 0 329.999 329.999" style="enable-background:new 0 0 329.999 329.999;" xml:space="preserve">
<g id="XMLID_536_">
	<path id="XMLID_782_" d="M15,60h299.999c8.284,0,15-6.716,15-15s-6.716-15-15-15H15C6.716,30,0,36.716,0,45S6.716,60,15,60z"/>
	<path id="XMLID_783_" d="M314.999,90H15c-8.284,0-15,6.716-15,15s6.716,15,15,15h299.999c8.284,0,15-6.716,15-15
		S323.284,90,314.999,90z"/>
	<path id="XMLID_784_" d="M314.999,150H15c-8.284,0-15,6.716-15,15c0,8.284,6.716,15,15,15h299.999c8.284,0,15-6.716,15-15
		C329.999,156.716,323.284,150,314.999,150z"/>
	<path id="XMLID_785_" d="M314.999,270H15c-8.284,0-15,6.716-15,15c0,8.284,6.716,15,15,15h299.999c8.284,0,15-6.716,15-15
		C329.999,276.716,323.284,270,314.999,270z"/>
	<path id="XMLID_786_" d="M314.999,210H15c-8.284,0-15,6.716-15,15c0,8.284,6.716,15,15,15h299.999c8.284,0,15-6.716,15-15
		C329.999,216.716,323.284,210,314.999,210z"/>
</g>
<g>
</g>
<g>
</g>
<g>
</g>
<g>
</g>
<g>
</g>
<g>
</g>
<g>
</g>
<g>
</g>
<g>
</g>
<g>
</g>
<g>
</g>
<g>
</g>
<g>
</g>
<g>
</g>
<g>
</g>
</svg>
