<?xml version="1.0" encoding="iso-8859-1"?>
<!-- Generator: Adobe Illustrator 19.0.0, SVG Export Plug-In . SVG Version: 6.00 Build 0)  -->
<svg version="1.1" id="Layer_1" xmlns="http://www.w3.org/2000/svg" xmlns:xlink="http://www.w3.org/1999/xlink" x="0px" y="0px"
	 viewBox="0 0 330 330" style="enable-background:new 0 0 330 330;" xml:space="preserve">
<g id="XMLID_530_">
	<path id="XMLID_531_" d="M15,60h300c8.284,0,15-6.716,15-15s-6.716-15-15-15H15C6.716,30,0,36.716,0,45S6.716,60,15,60z"/>
	<path id="XMLID_532_" d="M15,120h220c8.284,0,15-6.716,15-15s-6.716-15-15-15H15c-8.284,0-15,6.716-15,15S6.716,120,15,120z"/>
	<path id="XMLID_533_" d="M315,150H15c-8.284,0-15,6.716-15,15s6.716,15,15,15h300c8.284,0,15-6.716,15-15S323.284,150,315,150z"/>
	<path id="XMLID_534_" d="M315,270H15c-8.284,0-15,6.716-15,15s6.716,15,15,15h300c8.284,0,15-6.716,15-15S323.284,270,315,270z"/>
	<path id="XMLID_535_" d="M15,240h220c8.284,0,15-6.716,15-15s-6.716-15-15-15H15c-8.284,0-15,6.716-15,15S6.716,240,15,240z"/>
</g>
<g>
</g>
<g>
</g>
<g>
</g>
<g>
</g>
<g>
</g>
<g>
</g>
<g>
</g>
<g>
</g>
<g>
</g>
<g>
</g>
<g>
</g>
<g>
</g>
<g>
</g>
<g>
</g>
<g>
</g>
</svg>
