<?xml version="1.0" encoding="iso-8859-1"?>
<!-- Generator: Adobe Illustrator 19.0.0, SVG Export Plug-In . SVG Version: 6.00 Build 0)  -->
<svg version="1.1" id="Layer_1" xmlns="http://www.w3.org/2000/svg" xmlns:xlink="http://www.w3.org/1999/xlink" x="0px" y="0px"
	 viewBox="0 0 330 330" style="enable-background:new 0 0 330 330;" xml:space="preserve">
<g id="XMLID_487_">
	<path id="XMLID_488_" d="M75,60h240c8.284,0,15-6.716,15-15s-6.716-15-15-15H75c-8.284,0-15,6.716-15,15S66.716,60,75,60z"/>
	<path id="XMLID_489_" d="M315,90H75c-8.284,0-15,6.716-15,15s6.716,15,15,15h240c8.284,0,15-6.716,15-15S323.284,90,315,90z"/>
	<path id="XMLID_490_" d="M315,150H75c-8.284,0-15,6.716-15,15s6.716,15,15,15h240c8.284,0,15-6.716,15-15S323.284,150,315,150z"/>
	<path id="XMLID_491_" d="M315,270H75c-8.284,0-15,6.716-15,15s6.716,15,15,15h240c8.284,0,15-6.716,15-15S323.284,270,315,270z"/>
	<path id="XMLID_493_" d="M315,210H75c-8.284,0-15,6.716-15,15s6.716,15,15,15h240c8.284,0,15-6.716,15-15S323.284,210,315,210z"/>
	<path id="XMLID_494_" d="M15,30c-3.95,0-7.82,1.6-10.61,4.39C1.6,37.19,0,41.05,0,45c0,3.95,1.6,7.81,4.39,10.61
		C7.19,58.4,11.05,60,15,60c3.95,0,7.81-1.6,10.61-4.39C28.4,52.81,30,48.95,30,45c0-3.95-1.6-7.81-4.39-10.61
		C22.82,31.6,18.95,30,15,30z"/>
	<path id="XMLID_495_" d="M15,90c-3.95,0-7.82,1.6-10.61,4.39C1.6,97.19,0,101.05,0,105c0,3.95,1.6,7.81,4.39,10.61
		C7.19,118.4,11.05,120,15,120c3.95,0,7.81-1.6,10.61-4.39C28.4,112.82,30,108.95,30,105c0-3.95-1.6-7.81-4.39-10.61
		C22.82,91.6,18.95,90,15,90z"/>
	<path id="XMLID_496_" d="M15,150c-3.95,0-7.82,1.6-10.61,4.39C1.6,157.19,0,161.05,0,165c0,3.95,1.6,7.81,4.39,10.61
		C7.18,178.4,11.05,180,15,180c3.95,0,7.82-1.6,10.61-4.39C28.4,172.82,30,168.95,30,165c0-3.95-1.6-7.81-4.39-10.61
		C22.82,151.6,18.95,150,15,150z"/>
	<path id="XMLID_497_" d="M15,270c-3.95,0-7.82,1.6-10.61,4.39C1.6,277.19,0,281.05,0,285c0,3.95,1.6,7.81,4.39,10.61
		C7.18,298.4,11.05,300,15,300c3.95,0,7.81-1.6,10.61-4.39C28.4,292.81,30,288.95,30,285c0-3.95-1.6-7.82-4.39-10.61
		C22.82,271.6,18.95,270,15,270z"/>
	<path id="XMLID_498_" d="M15,210c-3.95,0-7.82,1.6-10.61,4.39C1.6,217.19,0,221.05,0,225c0,3.95,1.6,7.81,4.39,10.61
		C7.18,238.4,11.05,240,15,240c3.95,0,7.82-1.6,10.61-4.39C28.4,232.81,30,228.95,30,225c0-3.95-1.6-7.82-4.39-10.61
		C22.82,211.6,18.95,210,15,210z"/>
</g>
<g>
</g>
<g>
</g>
<g>
</g>
<g>
</g>
<g>
</g>
<g>
</g>
<g>
</g>
<g>
</g>
<g>
</g>
<g>
</g>
<g>
</g>
<g>
</g>
<g>
</g>
<g>
</g>
<g>
</g>
</svg>
