<?xml version="1.0" encoding="iso-8859-1"?>
<!-- Generator: Adobe Illustrator 19.0.0, SVG Export Plug-In . SVG Version: 6.00 Build 0)  -->
<svg version="1.1" id="Layer_1" xmlns="http://www.w3.org/2000/svg" xmlns:xlink="http://www.w3.org/1999/xlink" x="0px" y="0px"
	 viewBox="0 0 329.999 329.999" style="enable-background:new 0 0 329.999 329.999;" xml:space="preserve">
<g id="XMLID_500_">
	<path id="XMLID_501_" d="M314.999,270H15c-8.284,0-15,6.716-15,15c0,8.284,6.716,15,15,15h299.999c8.284,0,15-6.716,15-15
		C329.999,276.716,323.284,270,314.999,270z"/>
	<path id="XMLID_502_" d="M314.999,210h-150c-8.284,0-15,6.716-15,15c0,8.284,6.716,15,15,15h150c8.284,0,15-6.716,15-15
		C329.999,216.716,323.284,210,314.999,210z"/>
	<path id="XMLID_503_" d="M314.999,150h-150c-8.284,0-15,6.716-15,15c0,8.284,6.716,15,15,15h150c8.284,0,15-6.716,15-15
		C329.999,156.716,323.284,150,314.999,150z"/>
	<path id="XMLID_504_" d="M15,60h299.999c8.284,0,15-6.716,15-15s-6.716-15-15-15H15C6.716,30,0,36.716,0,45S6.716,60,15,60z"/>
	<path id="XMLID_505_" d="M314.999,90h-150c-8.284,0-15,6.716-15,15s6.716,15,15,15h150c8.284,0,15-6.716,15-15
		S323.284,90,314.999,90z"/>
	<path id="XMLID_506_" d="M64.393,94.393l-59.999,60c-5.858,5.858-5.858,15.355,0,21.213l59.999,60
		c2.87,2.87,6.705,4.394,10.61,4.394c1.932,0,3.881-0.374,5.737-1.142c5.605-2.322,9.26-7.791,9.26-13.858V105
		c0-6.067-3.655-11.537-9.26-13.858C75.134,88.82,68.682,90.103,64.393,94.393z"/>
</g>
<g>
</g>
<g>
</g>
<g>
</g>
<g>
</g>
<g>
</g>
<g>
</g>
<g>
</g>
<g>
</g>
<g>
</g>
<g>
</g>
<g>
</g>
<g>
</g>
<g>
</g>
<g>
</g>
<g>
</g>
</svg>
