<?xml version="1.0" encoding="iso-8859-1"?>
<!-- Generator: Adobe Illustrator 19.0.0, SVG Export Plug-In . SVG Version: 6.00 Build 0)  -->
<svg version="1.1" id="Layer_1" xmlns="http://www.w3.org/2000/svg" xmlns:xlink="http://www.w3.org/1999/xlink" x="0px" y="0px"
	 viewBox="0 0 330 330" style="enable-background:new 0 0 330 330;" xml:space="preserve">
<g id="XMLID_340_">
	<path id="XMLID_341_" d="M310,315v-95h-8.786H280h-21.213H200h-15c-8.284,0-15-6.716-15-15v-15v-58.787V110V88.787V80H95
		c-8.284,0-15,6.716-15,15v113.292V260v30v16.338V315c0,8.284,6.716,15,15,15h200C303.284,330,310,323.284,310,315z"/>
	<path id="XMLID_348_" d="M235,10h-75.872c-2.061-5.822-7.6-10-14.128-10h-20c-6.528,0-12.066,4.178-14.128,10H35
		c-8.284,0-15,6.716-15,15v250c0,8.284,6.716,15,15,15h15v-30v-51.708V40h30.872c2.062,5.822,7.6,10,14.128,10h80
		c6.528,0,12.066-4.178,14.128-10H220v26.431c0.413,0.369,0.819,0.749,1.214,1.144l20,20L250,96.36V25C250,16.716,243.284,10,235,10
		z"/>
	<polygon id="XMLID_350_" points="220,108.787 200,88.787 200,131.213 200,190 258.787,190 301.214,190 250,138.787 	"/>
</g>
<g>
</g>
<g>
</g>
<g>
</g>
<g>
</g>
<g>
</g>
<g>
</g>
<g>
</g>
<g>
</g>
<g>
</g>
<g>
</g>
<g>
</g>
<g>
</g>
<g>
</g>
<g>
</g>
<g>
</g>
</svg>
