<?xml version="1.0" encoding="iso-8859-1"?>
<!-- Generator: Adobe Illustrator 19.0.0, SVG Export Plug-In . SVG Version: 6.00 Build 0)  -->
<svg version="1.1" id="Layer_1" xmlns="http://www.w3.org/2000/svg" xmlns:xlink="http://www.w3.org/1999/xlink" x="0px" y="0px"
	 viewBox="0 0 353.332 353.332" style="enable-background:new 0 0 353.332 353.332;" xml:space="preserve">
<g id="XMLID_229_">
	<path id="XMLID_230_" d="M255.831,330h0.002c-24.287,0-45.807-11.815-59.152-30c-4.434-6.041-7.953-12.786-10.383-20.036
		c-0.021-0.064-0.043-0.128-0.064-0.191c-0.27-0.816-0.527-1.638-0.77-2.466c-0.063-0.207-0.119-0.416-0.178-0.624
		c-0.219-0.772-0.434-1.547-0.627-2.329c-0.055-0.213-0.098-0.43-0.148-0.643c-0.293-1.227-0.553-2.465-0.783-3.715
		c-0.104-0.561-0.209-1.121-0.301-1.688c-0.08-0.497-0.145-0.998-0.215-1.499c-0.09-0.643-0.174-1.286-0.246-1.935
		c-0.051-0.461-0.098-0.924-0.141-1.387c-0.068-0.74-0.123-1.483-0.17-2.229c-0.023-0.386-0.053-0.77-0.07-1.157
		c-0.053-1.138-0.088-2.28-0.088-3.432c0-0.001,0-0.003,0-0.004c0,0,0,0,0-0.001c0-1.187,0.033-2.368,0.09-3.543
		c0.02-0.413,0.057-0.822,0.082-1.234c0.049-0.751,0.1-1.502,0.172-2.246c0.047-0.51,0.109-1.014,0.168-1.52
		c0.074-0.63,0.15-1.26,0.24-1.886c0.08-0.564,0.17-1.126,0.264-1.688c0.09-0.543,0.188-1.085,0.289-1.625
		c0.117-0.616,0.238-1.229,0.371-1.84c0.096-0.445,0.201-0.887,0.307-1.328c0.162-0.688,0.326-1.375,0.508-2.055
		c0.072-0.268,0.152-0.533,0.227-0.799c7.313-26.176,28.766-46.446,55.617-52.029c4.844-1.007,9.859-1.541,15.002-1.541
		c5.141,0,10.156,0.534,14.998,1.54V140h-30h-21.213h-73.787c-8.283,0-15-6.717-15-15V51.213V30V0h-115c-8.283,0-15,6.715-15,15v300
		c0,8.283,6.717,15,15,15H255.831z"/>
	<path id="XMLID_231_" d="M348.108,327.727l-30.916-30.916c-5.537,8.446-12.768,15.676-21.213,21.214l30.916,30.915
		c2.928,2.929,6.768,4.393,10.605,4.393c3.84,0,7.678-1.464,10.607-4.393C353.966,343.081,353.966,333.584,348.108,327.727z"/>
	<polygon id="XMLID_232_" points="160.831,110 219.618,110 262.046,110 160.831,8.787 160.831,51.213 	"/>
	<path id="XMLID_233_" d="M299.165,256.667c0-23.895-19.438-43.335-43.332-43.335c-23.894,0-43.336,19.439-43.336,43.335
		c0,23.893,19.441,43.333,43.336,43.333C279.727,300,299.165,280.56,299.165,256.667z"/>
</g>
<g>
</g>
<g>
</g>
<g>
</g>
<g>
</g>
<g>
</g>
<g>
</g>
<g>
</g>
<g>
</g>
<g>
</g>
<g>
</g>
<g>
</g>
<g>
</g>
<g>
</g>
<g>
</g>
<g>
</g>
</svg>
