<?xml version="1.0" encoding="iso-8859-1"?>
<!-- Generator: Adobe Illustrator 19.0.0, SVG Export Plug-In . SVG Version: 6.00 Build 0)  -->
<svg version="1.1" id="Layer_1" xmlns="http://www.w3.org/2000/svg" xmlns:xlink="http://www.w3.org/1999/xlink" x="0px" y="0px"
	 viewBox="0 0 330 330" style="enable-background:new 0 0 330 330;" xml:space="preserve">
<g id="XMLID_235_">
	<path id="XMLID_236_" d="M15,270h45v45c0,8.284,6.716,15,15,15h180c8.284,0,15-6.716,15-15v-45h45c8.284,0,15-6.716,15-15V75
		c0-8.284-6.716-15-15-15h-45V15c0-8.284-6.716-15-15-15H75c-8.284,0-15,6.716-15,15v45H15C6.716,60,0,66.716,0,75v180
		C0,263.284,6.716,270,15,270z M255,120c3.95,0,7.81,1.6,10.609,4.39c2.79,2.8,4.391,6.66,4.391,10.61
		c0,3.949-1.601,7.82-4.391,10.609C262.81,148.4,258.95,150,255,150s-7.811-1.6-10.61-4.391c-2.79-2.799-4.39-6.66-4.39-10.609
		c0-3.95,1.6-7.811,4.39-10.61C247.189,121.6,251.05,120,255,120z M90,30h150v30H90V30z M90,210h150v90H90V210z"/>
	<path id="XMLID_241_" d="M195,240h-60c-8.284,0-15,6.716-15,15c0,8.284,6.716,15,15,15h60c8.284,0,15-6.716,15-15
		C210,246.716,203.284,240,195,240z"/>
</g>
<g>
</g>
<g>
</g>
<g>
</g>
<g>
</g>
<g>
</g>
<g>
</g>
<g>
</g>
<g>
</g>
<g>
</g>
<g>
</g>
<g>
</g>
<g>
</g>
<g>
</g>
<g>
</g>
<g>
</g>
</svg>
