<?xml version="1.0" encoding="iso-8859-1"?>
<!-- Generator: Adobe Illustrator 19.0.0, SVG Export Plug-In . SVG Version: 6.00 Build 0)  -->
<svg version="1.1" id="Layer_1" xmlns="http://www.w3.org/2000/svg" xmlns:xlink="http://www.w3.org/1999/xlink" x="0px" y="0px"
	 viewBox="0 0 329.028 329.028" style="enable-background:new 0 0 329.028 329.028;" xml:space="preserve">
<path id="XMLID_197_" d="M263.485,90.089c-5.857-5.858-15.355-5.858-21.213,0c-5.858,5.858-5.858,15.355,0,21.213
	c20.77,20.771,32.21,48.386,32.21,77.759c0,60.636-49.332,109.968-109.969,109.968c-60.636,0-109.967-49.332-109.967-109.968
	c0-33.662,15.208-63.834,39.109-84.022l7.052,35.455c1.184,5.95,5.835,10.602,11.786,11.786c0.977,0.194,1.957,0.288,2.928,0.288
	c4.945,0,9.653-2.451,12.47-6.667l49.041-73.395c0.014-0.02,0.026-0.04,0.04-0.059l0.013-0.02c0.03-0.046,0.055-0.095,0.084-0.141
	c0.238-0.363,0.464-0.734,0.67-1.118c0.034-0.063,0.061-0.13,0.094-0.194c0.192-0.371,0.375-0.748,0.537-1.137
	c0.028-0.069,0.049-0.141,0.076-0.21c0.152-0.384,0.297-0.771,0.418-1.17c0.027-0.09,0.045-0.184,0.07-0.274
	c0.106-0.377,0.209-0.754,0.286-1.142c0.036-0.18,0.054-0.361,0.083-0.542c0.048-0.301,0.104-0.6,0.135-0.907
	c0.049-0.496,0.075-0.995,0.075-1.495c0-0.001,0-0.002,0-0.004c0-0.056-0.008-0.11-0.009-0.167c-0.005-0.44-0.022-0.881-0.066-1.321
	c-0.034-0.347-0.094-0.686-0.151-1.025c-0.024-0.138-0.034-0.276-0.062-0.414c-0.001-0.007-0.004-0.013-0.005-0.02
	c-0.088-0.442-0.2-0.875-0.327-1.303c-0.012-0.041-0.02-0.084-0.031-0.125c-0.138-0.45-0.298-0.89-0.475-1.321
	c-0.009-0.021-0.015-0.042-0.023-0.062c-0.171-0.413-0.364-0.813-0.571-1.206c-0.021-0.041-0.038-0.083-0.06-0.123
	c-0.189-0.354-0.4-0.695-0.618-1.031c-0.048-0.075-0.089-0.154-0.139-0.228c-0.197-0.294-0.415-0.573-0.632-0.853
	c-0.083-0.107-0.156-0.22-0.242-0.324c-0.215-0.261-0.448-0.505-0.68-0.751c-0.102-0.108-0.194-0.225-0.3-0.33
	c-0.343-0.343-0.702-0.669-1.077-0.978c-0.064-0.053-0.136-0.099-0.201-0.15c-0.319-0.254-0.644-0.502-0.982-0.729
	c-0.005-0.003-0.01-0.007-0.015-0.011L99.374,2.528c-5.044-3.37-11.622-3.37-16.667,0c-5.045,3.371-7.562,9.448-6.378,15.398
	L87.175,72.46C49.456,97.561,24.546,140.453,24.546,189.06c0,77.178,62.789,139.968,139.967,139.968
	c77.179,0,139.969-62.79,139.969-139.968C304.482,151.674,289.922,116.526,263.485,90.089z"/>
<g>
</g>
<g>
</g>
<g>
</g>
<g>
</g>
<g>
</g>
<g>
</g>
<g>
</g>
<g>
</g>
<g>
</g>
<g>
</g>
<g>
</g>
<g>
</g>
<g>
</g>
<g>
</g>
<g>
</g>
</svg>
