<?xml version="1.0" encoding="iso-8859-1"?>
<!-- Generator: Adobe Illustrator 19.0.0, SVG Export Plug-In . SVG Version: 6.00 Build 0)  -->
<svg version="1.1" id="Layer_1" xmlns="http://www.w3.org/2000/svg" xmlns:xlink="http://www.w3.org/1999/xlink" x="0px" y="0px"
	 viewBox="0 0 270 270" style="enable-background:new 0 0 270 270;" xml:space="preserve">
<g id="XMLID_245_">
	<polygon id="XMLID_307_" points="270,270 270,196.545 196.546,270 225,270 	"/>
	<path id="XMLID_308_" d="M60,270h40v-30.334c0-3.977,1.581-7.793,4.394-10.605l39.06-39.061H60V270z"/>
	<rect id="XMLID_309_" x="60" y="0.001" width="90" height="79.999"/>
	<polygon id="XMLID_311_" points="154.119,270 263.787,160.333 239.666,136.212 130,245.879 130,270 	"/>
	<path id="XMLID_312_" d="M270,71.486L198.514,0.001H180v94.999c0,8.284-6.715,15-15,15H45c-8.283,0-15-6.716-15-15V0.001H0V270h30
		v-95c0-8.284,6.717-15,15-15h128.454l55.606-55.606c5.858-5.858,15.356-5.858,21.213,0L270,124.121V71.486z"/>
</g>
<g>
</g>
<g>
</g>
<g>
</g>
<g>
</g>
<g>
</g>
<g>
</g>
<g>
</g>
<g>
</g>
<g>
</g>
<g>
</g>
<g>
</g>
<g>
</g>
<g>
</g>
<g>
</g>
<g>
</g>
</svg>
