<?xml version="1.0" encoding="iso-8859-1"?>
<!-- Generator: Adobe Illustrator 19.0.0, SVG Export Plug-In . SVG Version: 6.00 Build 0)  -->
<svg version="1.1" id="Layer_1" xmlns="http://www.w3.org/2000/svg" xmlns:xlink="http://www.w3.org/1999/xlink" x="0px" y="0px"
	 viewBox="0 0 330.002 330.002" style="enable-background:new 0 0 330.002 330.002;" xml:space="preserve">
<path id="XMLID_107_" d="M307.301,197.701c-14.637-14.638-34.099-22.699-54.8-22.699c-14.638,0-28.648,4.049-40.78,11.586
	l-28.609-42.279l81.812-120.9c4.643-6.861,2.845-16.187-4.017-20.829c-6.863-4.644-16.188-2.844-20.829,4.017l-75.077,110.949
	L89.924,6.596c-4.643-6.861-13.969-8.66-20.829-4.017c-6.861,4.643-8.66,13.968-4.017,20.829l81.812,120.9l-28.609,42.279
	c-12.131-7.537-26.141-11.586-40.779-11.586c-20.701,0-40.163,8.062-54.8,22.699c-14.638,14.638-22.7,34.1-22.7,54.801
	s8.062,40.163,22.7,54.801c14.637,14.638,34.099,22.699,54.8,22.699s40.163-8.061,54.8-22.699c14.638-14.638,22.7-34.1,22.7-54.801
	c0-16.442-5.102-32.094-14.53-45.176l24.531-36.252l24.531,36.252c-9.428,13.082-14.53,28.733-14.53,45.176
	c0,20.701,8.062,40.163,22.7,54.801c14.638,14.638,34.1,22.699,54.8,22.699c20.701,0,40.163-8.061,54.799-22.699
	c14.638-14.638,22.7-34.1,22.7-54.801S321.939,212.339,307.301,197.701z M111.088,286.09c-8.972,8.971-20.899,13.912-33.587,13.912
	s-24.615-4.941-33.587-13.912c-18.52-18.521-18.52-48.655,0-67.176c8.972-8.971,20.899-13.912,33.587-13.912
	s24.615,4.941,33.587,13.912C129.608,237.435,129.608,267.569,111.088,286.09z M286.087,286.09
	c-8.971,8.972-20.898,13.912-33.586,13.912s-24.616-4.941-33.587-13.912c-18.52-18.521-18.52-48.655,0-67.176
	c8.972-8.971,20.9-13.912,33.587-13.912s24.615,4.94,33.586,13.912C304.608,237.435,304.608,267.569,286.087,286.09z"/>
<g>
</g>
<g>
</g>
<g>
</g>
<g>
</g>
<g>
</g>
<g>
</g>
<g>
</g>
<g>
</g>
<g>
</g>
<g>
</g>
<g>
</g>
<g>
</g>
<g>
</g>
<g>
</g>
<g>
</g>
</svg>
