<?xml version="1.0" encoding="iso-8859-1"?>
<!-- Generator: Adobe Illustrator 19.0.0, SVG Export Plug-In . SVG Version: 6.00 Build 0)  -->
<svg version="1.1" id="Layer_1" xmlns="http://www.w3.org/2000/svg" xmlns:xlink="http://www.w3.org/1999/xlink" x="0px" y="0px"
	 viewBox="0 0 330 330" style="enable-background:new 0 0 330 330;" xml:space="preserve">
<path id="XMLID_15_" d="M315,150.001H197.54c-0.013,0-0.026-0.001-0.039-0.001h-65.003c-13.355,0-25.912-5.2-35.355-14.645
	c-9.444-9.443-14.645-21.999-14.645-35.354c0-13.356,5.201-25.913,14.645-35.357c9.443-9.443,21.998-14.644,35.353-14.644
	c0.002,0,0.003,0,0.004,0l130.001-0.002c8.284,0,15-6.716,15-15s-6.716-15-15-15l-130.002,0.002c-0.001,0-0.001,0-0.003,0
	c-21.367,0-41.457,8.322-56.566,23.431c-15.11,15.11-23.431,35.2-23.431,56.57c0,18.406,6.188,35.855,17.558,49.999H15
	c-8.284,0-15,6.716-15,15c0,8.284,6.716,15,15,15h182.54c27.553,0.02,49.961,22.442,49.961,50c0,13.355-5.201,25.911-14.645,35.355
	C223.412,274.8,210.856,280,197.5,280c0,0,0,0,0,0l-130.001,0.001c-8.284,0-15,6.716-15,15c0,8.284,6.716,15,15,15L197.5,310
	c0,0,0.001,0,0.002,0c21.367,0,41.457-8.321,56.567-23.431c15.11-15.109,23.432-35.199,23.432-56.568
	c0-18.907-6.607-36.292-17.616-50H315c8.284,0,15-6.716,15-15C330,156.717,323.284,150.001,315,150.001z"/>
<g>
</g>
<g>
</g>
<g>
</g>
<g>
</g>
<g>
</g>
<g>
</g>
<g>
</g>
<g>
</g>
<g>
</g>
<g>
</g>
<g>
</g>
<g>
</g>
<g>
</g>
<g>
</g>
<g>
</g>
</svg>
