<?xml version="1.0" encoding="iso-8859-1"?>
<!-- Generator: Adobe Illustrator 19.0.0, SVG Export Plug-In . SVG Version: 6.00 Build 0)  -->
<svg version="1.1" id="Layer_1" xmlns="http://www.w3.org/2000/svg" xmlns:xlink="http://www.w3.org/1999/xlink" x="0px" y="0px"
	 viewBox="0 0 330 330" style="enable-background:new 0 0 330 330;" xml:space="preserve">
<path id="XMLID_451_" d="M315,30H15C6.716,30,0,36.716,0,45v60v180c0,8.284,6.716,15,15,15h300c8.284,0,15-6.716,15-15V105V45
	C330,36.716,323.284,30,315,30z M130,210v-30h70v30H130z M200,240v30h-70v-30H200z M200,120v30h-70v-30H200z M230,120h70v30h-70V120
	z M100,120v30H30v-30H100z M30,180h70v30H30V180z M230,180h70v30h-70V180z M30,240h70v30H30V240z M230,270v-30h70v30H230z"/>
<g>
</g>
<g>
</g>
<g>
</g>
<g>
</g>
<g>
</g>
<g>
</g>
<g>
</g>
<g>
</g>
<g>
</g>
<g>
</g>
<g>
</g>
<g>
</g>
<g>
</g>
<g>
</g>
<g>
</g>
</svg>
