<?xml version="1.0" encoding="iso-8859-1"?>
<!-- Generator: Adobe Illustrator 19.0.0, SVG Export Plug-In . SVG Version: 6.00 Build 0)  -->
<svg version="1.1" id="Layer_1" xmlns="http://www.w3.org/2000/svg" xmlns:xlink="http://www.w3.org/1999/xlink" x="0px" y="0px"
	 viewBox="0 0 330 330" style="enable-background:new 0 0 330 330;" xml:space="preserve">
<g id="XMLID_24_">
	<path id="XMLID_25_" d="M304.034,197.266l-9.033,9.678L295,123.056l9.034,9.679c2.954,3.166,6.956,4.766,10.969,4.766
		c3.665,0,7.34-1.336,10.232-4.034c6.056-5.652,6.383-15.145,0.731-21.2l-35-37.5c-0.055-0.059-0.117-0.109-0.172-0.166
		c-0.201-0.209-0.411-0.406-0.624-0.604c-0.155-0.143-0.307-0.288-0.467-0.424c-0.229-0.194-0.469-0.376-0.709-0.557
		c-0.155-0.116-0.306-0.237-0.464-0.348c-0.277-0.191-0.566-0.366-0.856-0.54c-0.133-0.079-0.261-0.165-0.396-0.24
		c-0.351-0.195-0.713-0.37-1.081-0.537c-0.083-0.038-0.164-0.083-0.248-0.119c-0.442-0.191-0.896-0.361-1.358-0.51
		c-0.015-0.005-0.03-0.012-0.045-0.017C283.111,70.25,281.585,70,280,70c-1.585,0-3.111,0.25-4.546,0.705
		c-0.012,0.004-0.024,0.01-0.036,0.014c-0.466,0.149-0.922,0.32-1.367,0.514c-0.081,0.034-0.158,0.078-0.239,0.114
		c-0.371,0.169-0.736,0.345-1.09,0.542c-0.132,0.073-0.258,0.158-0.388,0.235c-0.293,0.175-0.584,0.352-0.864,0.546
		c-0.157,0.107-0.306,0.228-0.458,0.342c-0.243,0.183-0.484,0.365-0.715,0.562c-0.159,0.135-0.309,0.279-0.462,0.421
		c-0.214,0.197-0.426,0.396-0.628,0.606c-0.055,0.058-0.117,0.106-0.171,0.165l-35,37.5c-5.652,6.056-5.325,15.548,0.731,21.2
		c6.058,5.653,15.548,5.325,21.201-0.731l9.035-9.68l0.001,83.893l-9.036-9.682c-5.652-6.059-15.145-6.385-21.201-0.731
		c-6.056,5.652-6.383,15.145-0.731,21.2l35,37.5c0.06,0.064,0.127,0.119,0.189,0.182c0.185,0.192,0.38,0.375,0.576,0.558
		c0.169,0.157,0.337,0.316,0.512,0.465c0.212,0.18,0.434,0.347,0.656,0.515c0.172,0.13,0.34,0.265,0.517,0.387
		c0.257,0.178,0.525,0.338,0.793,0.5c0.153,0.092,0.301,0.191,0.458,0.277c0.327,0.182,0.665,0.344,1.007,0.5
		c0.107,0.05,0.211,0.107,0.32,0.154c0.414,0.18,0.84,0.336,1.272,0.479c0.044,0.014,0.085,0.033,0.128,0.047
		c1.407,0.446,2.903,0.69,4.457,0.699c0.027,0,0.054,0.004,0.082,0.004c0,0,0,0,0,0c0.001,0,0.001,0,0.001,0
		c2.118,0,4.13-0.443,5.957-1.235c0.057-0.024,0.11-0.055,0.166-0.08c0.397-0.178,0.787-0.368,1.165-0.578
		c0.111-0.061,0.217-0.134,0.327-0.198c0.316-0.186,0.628-0.377,0.927-0.586c0.139-0.096,0.27-0.202,0.407-0.303
		c0.262-0.195,0.521-0.392,0.769-0.604c0.143-0.122,0.279-0.252,0.417-0.379c0.23-0.212,0.458-0.427,0.675-0.652
		c0.05-0.052,0.105-0.097,0.155-0.149l35-37.5c5.652-6.056,5.325-15.548-0.731-21.2C319.179,190.883,309.687,191.21,304.034,197.266
		z"/>
	<path id="XMLID_26_" d="M175,70H15C6.716,70,0,76.716,0,85v38.989c0,8.284,6.716,15,15,15c8.284,0,15-6.716,15-15V100h50v130
		H56.837c-8.284,0-15,6.716-15,15s6.716,15,15,15h76.327c8.284,0,15-6.716,15-15s-6.716-15-15-15H110V100h50v23.989
		c0,8.284,6.716,15,15,15c8.284,0,15-6.716,15-15V85C190,76.716,183.284,70,175,70z"/>
</g>
<g>
</g>
<g>
</g>
<g>
</g>
<g>
</g>
<g>
</g>
<g>
</g>
<g>
</g>
<g>
</g>
<g>
</g>
<g>
</g>
<g>
</g>
<g>
</g>
<g>
</g>
<g>
</g>
<g>
</g>
</svg>
