<?xml version="1.0" encoding="iso-8859-1"?>
<!-- Generator: Adobe Illustrator 19.0.0, SVG Export Plug-In . SVG Version: 6.00 Build 0)  -->
<svg version="1.1" id="Layer_1" xmlns="http://www.w3.org/2000/svg" xmlns:xlink="http://www.w3.org/1999/xlink" x="0px" y="0px"
	 viewBox="0 0 330 330" style="enable-background:new 0 0 330 330;" xml:space="preserve">
<g id="XMLID_21_">
	<path id="XMLID_22_" d="M256.003,290.171c0.144-0.155,0.289-0.308,0.425-0.468c0.194-0.228,0.375-0.468,0.556-0.708
		c0.116-0.155,0.238-0.307,0.349-0.466c0.191-0.276,0.365-0.564,0.538-0.853c0.08-0.134,0.167-0.264,0.242-0.399
		c0.194-0.349,0.368-0.71,0.534-1.075c0.039-0.085,0.085-0.168,0.122-0.254c0.19-0.439,0.359-0.891,0.507-1.35
		c0.006-0.019,0.014-0.035,0.02-0.053C259.75,283.11,260,281.585,260,280s-0.25-3.11-0.705-4.545
		c-0.006-0.018-0.014-0.034-0.02-0.053c-0.147-0.459-0.316-0.91-0.507-1.35c-0.037-0.086-0.083-0.169-0.122-0.254
		c-0.166-0.365-0.34-0.727-0.534-1.075c-0.075-0.136-0.162-0.266-0.242-0.399c-0.173-0.289-0.347-0.577-0.538-0.853
		c-0.11-0.159-0.232-0.311-0.349-0.466c-0.181-0.24-0.361-0.48-0.556-0.708c-0.136-0.16-0.281-0.313-0.425-0.468
		c-0.196-0.212-0.393-0.422-0.602-0.622c-0.058-0.057-0.107-0.118-0.166-0.173l-37.5-35c-6.055-5.651-15.548-5.325-21.2,0.731
		c-5.652,6.056-5.325,15.548,0.731,21.2l9.68,9.034l-83.892,0.002l9.681-9.036c6.056-5.652,6.383-15.145,0.731-21.2
		c-5.652-6.059-15.145-6.385-21.201-0.731l-37.5,35c-0.065,0.06-0.121,0.129-0.184,0.19c-0.19,0.184-0.37,0.376-0.55,0.569
		c-0.16,0.172-0.321,0.341-0.472,0.519c-0.178,0.211-0.342,0.43-0.509,0.649c-0.131,0.174-0.267,0.344-0.391,0.522
		c-0.176,0.255-0.336,0.521-0.497,0.787c-0.093,0.154-0.194,0.305-0.281,0.463c-0.18,0.324-0.34,0.661-0.496,1
		c-0.051,0.109-0.11,0.216-0.158,0.327c-0.179,0.414-0.335,0.839-0.477,1.271c-0.015,0.044-0.034,0.086-0.047,0.13
		c-0.447,1.407-0.691,2.903-0.7,4.456c0,0.027-0.004,0.055-0.004,0.082v0.001v0.001c0,2.116,0.443,4.128,1.234,5.953
		c0.027,0.064,0.062,0.125,0.09,0.188c0.175,0.39,0.361,0.772,0.568,1.143c0.065,0.117,0.141,0.228,0.21,0.345
		c0.183,0.309,0.369,0.615,0.573,0.909c0.1,0.144,0.211,0.28,0.315,0.421c0.191,0.256,0.384,0.511,0.591,0.754
		c0.126,0.147,0.261,0.288,0.393,0.432c0.208,0.226,0.416,0.447,0.637,0.66c0.053,0.051,0.1,0.108,0.154,0.159l37.5,35
		c2.892,2.698,6.566,4.034,10.231,4.034c4.013,0,8.015-1.601,10.969-4.766c5.652-6.056,5.325-15.548-0.731-21.2l-9.678-9.032
		L206.944,295l-9.679,9.034c-6.057,5.652-6.384,15.145-0.731,21.2c2.954,3.166,6.956,4.766,10.969,4.766
		c3.666,0,7.341-1.336,10.232-4.034l37.5-35c0.059-0.055,0.108-0.116,0.166-0.173C255.609,290.593,255.807,290.383,256.003,290.171z
		"/>
	<path id="XMLID_23_" d="M85,68.99c8.284,0,15-6.716,15-15V30h49.998v130h-23.162c-8.284,0-15,6.716-15,15s6.716,15,15,15h76.326
		c8.284,0,15-6.716,15-15s-6.716-15-15-15h-23.164V30h50v23.99c0,8.284,6.716,15,15,15c8.284,0,15-6.716,15-15V15
		c0-8.284-6.716-15-15-15H85c-8.284,0-15,6.716-15,15v38.99C70,62.274,76.716,68.99,85,68.99z"/>
</g>
<g>
</g>
<g>
</g>
<g>
</g>
<g>
</g>
<g>
</g>
<g>
</g>
<g>
</g>
<g>
</g>
<g>
</g>
<g>
</g>
<g>
</g>
<g>
</g>
<g>
</g>
<g>
</g>
<g>
</g>
</svg>
