<?xml version="1.0" encoding="iso-8859-1"?>
<!-- Generator: Adobe Illustrator 16.0.0, SVG Export Plug-In . SVG Version: 6.00 Build 0)  -->
<!DOCTYPE svg PUBLIC "-//W3C//DTD SVG 1.1//EN" "http://www.w3.org/Graphics/SVG/1.1/DTD/svg11.dtd">
<svg version="1.1" id="Capa_1" xmlns="http://www.w3.org/2000/svg" xmlns:xlink="http://www.w3.org/1999/xlink" x="0px" y="0px"
	 width="36.5px" height="36.5px" viewBox="0 0 36.5 36.5" style="enable-background:new 0 0 36.5 36.5;" xml:space="preserve">
<g>
	<path d="M34,7.404H8.323c-0.817,0-1.583,0.399-2.051,1.069L0.45,16.819c-0.601,0.858-0.601,2.002,0,2.861l5.822,8.346
		c0.469,0.67,1.233,1.069,2.051,1.069H34c1.381,0,2.5-1.119,2.5-2.5V9.903C36.5,8.523,35.381,7.404,34,7.404z M7.23,20.793
		c-1.403-0.01-2.534-1.158-2.522-2.561c0.01-1.404,1.157-2.533,2.561-2.523c1.404,0.01,2.533,1.157,2.523,2.56
		C9.78,19.674,8.634,20.803,7.23,20.793z"/>
</g>
<g>
</g>
<g>
</g>
<g>
</g>
<g>
</g>
<g>
</g>
<g>
</g>
<g>
</g>
<g>
</g>
<g>
</g>
<g>
</g>
<g>
</g>
<g>
</g>
<g>
</g>
<g>
</g>
<g>
</g>
</svg>
