<svg id="Capa_1" enable-background="new 0 0 512 512" height="512" viewBox="0 0 512 512" width="512" xmlns="http://www.w3.org/2000/svg"><path d="m196.001 0h-110.002c-8.284 0-15 6.716-15 15v300c0 8.284 6.716 15 15 15h110.003c24.813 0 45 20.187 45 45v-330c-.001-24.853-20.148-45-45.001-45zm-15.001 270h-50c-8.284 0-15-6.716-15-15s6.716-15 15-15h50c8.284 0 15 6.716 15 15s-6.716 15-15 15zm0-60h-50c-8.284 0-15-6.716-15-15s6.716-15 15-15h50c8.284 0 15 6.716 15 15s-6.716 15-15 15zm0-60h-50c-8.284 0-15-6.716-15-15s6.716-15 15-15h50c8.284 0 15 6.716 15 15s-6.716 15-15 15zm0-60h-50c-8.284 0-15-6.716-15-15s6.716-15 15-15h50c8.284 0 15 6.716 15 15s-6.716 15-15 15z"/><path d="m196.001 360h-110.002c-24.813 0-45-20.187-45-45v-265h-15c-8.284 0-15 6.716-15 15v310c0 8.284 6.716 15 15 15h185.002v-15c0-8.271-6.729-15-15-15z"/><path d="m486.001 50h-15v265c0 24.813-20.187 45-45 45h-110c-8.271 0-14.999 6.729-14.999 15v15h184.999c8.284 0 15-6.716 15-15v-310c0-8.284-6.716-15-15-15z"/><path d="m46.001 422c-19.299 0-35 15.701-35 35v20c0 19.299 15.701 35 35 35h25v-90z"/><path d="m101.001 422h290v90h-290z"/><path d="m491.268 452.955-70.267-26.35v80.79l70.267-26.35c5.854-2.195 9.733-7.792 9.733-14.045s-3.879-11.85-9.733-14.045z"/><path d="m426.001 0h-25v115c0 5.532-3.045 10.615-7.922 13.225-4.878 2.61-10.796 2.325-15.398-.745l-21.679-14.453-21.68 14.453c-2.51 1.673-5.411 2.519-8.321 2.519-2.427 0-4.859-.588-7.077-1.775-4.877-2.61-7.922-7.693-7.922-13.225v-114.716c-22.499 2.488-40 21.555-40 44.717v330c0-24.813 20.187-45 44.999-45h110c8.284 0 15-6.716 15-15v-300c0-8.284-6.716-15-15-15zm-45 270h-49.999c-8.284 0-15-6.716-15-15s6.716-15 15-15h49.999c8.284 0 15 6.716 15 15s-6.716 15-15 15zm0-60h-49.999c-8.284 0-15-6.716-15-15s6.716-15 15-15h49.999c8.284 0 15 6.716 15 15s-6.716 15-15 15z"/><path d="m364.322 82.52 6.679 4.452v-86.972h-29.999v86.972l6.68-4.453c5.037-3.359 11.601-3.359 16.64.001z"/></svg>