<?xml version="1.0" encoding="iso-8859-1"?>
<!-- Generator: Adobe Illustrator 19.0.0, SVG Export Plug-In . SVG Version: 6.00 Build 0)  -->
<svg version="1.1" id="Capa_1" xmlns="http://www.w3.org/2000/svg" xmlns:xlink="http://www.w3.org/1999/xlink" x="0px" y="0px"
	 viewBox="0 0 512 512" style="enable-background:new 0 0 512 512;" xml:space="preserve">
<g>
	<g>
		<g>
			<polygon points="45.656,128 77.656,128 77.656,0 39.032,0 2.344,36.688 24.968,59.312 45.656,38.624 			"/>
			<rect x="413.656" y="64" width="32" height="32"/>
			<rect x="157.656" y="64" width="224" height="32"/>
			<rect x="477.656" y="64" width="32" height="32"/>
			<rect x="221.656" y="224" width="160" height="32"/>
			<rect x="477.656" y="224" width="32" height="32"/>
			<rect x="413.656" y="224" width="32" height="32"/>
			<rect x="285.656" y="416" width="96" height="32"/>
			<rect x="477.656" y="416" width="32" height="32"/>
			<rect x="413.656" y="416" width="32" height="32"/>
			<path d="M141.656,272v-64c0-26.51-21.49-48-48-48s-48,21.49-48,48h32c0-8.837,7.163-16,16-16s16,7.163,16,16v16h-16
				c-26.509-0.157-48.126,21.206-48.283,47.715c-0.157,26.509,21.206,48.126,47.715,48.283c12.037,0.071,23.661-4.382,32.568-12.478
				c8.747,7.99,20.154,12.438,32,12.48v-32C148.819,288,141.656,280.837,141.656,272z M109.656,272c0,8.837-7.163,16-16,16
				s-16-7.163-16-16s7.163-16,16-16h16V272z"/>
			<rect x="173.656" y="416" width="32" height="96"/>
			<rect x="173.656" y="352" width="32" height="32"/>
		</g>
	</g>
</g>
<g>
</g>
<g>
</g>
<g>
</g>
<g>
</g>
<g>
</g>
<g>
</g>
<g>
</g>
<g>
</g>
<g>
</g>
<g>
</g>
<g>
</g>
<g>
</g>
<g>
</g>
<g>
</g>
<g>
</g>
</svg>
