<?xml version="1.0" encoding="iso-8859-1"?>
<!-- Generator: Adobe Illustrator 18.1.1, SVG Export Plug-In . SVG Version: 6.00 Build 0)  -->
<svg version="1.1" id="Capa_1" xmlns="http://www.w3.org/2000/svg" xmlns:xlink="http://www.w3.org/1999/xlink" x="0px" y="0px"
	 viewBox="0 0 398.414 398.414" style="enable-background:new 0 0 398.414 398.414;" xml:space="preserve">
<g>
	<g>
		<path style="fill:#010002;" d="M89.073,106.923c-17.214,0-31.219,14.004-31.219,31.219s14.004,31.219,31.219,31.219
			s31.219-14.004,31.219-31.219S106.288,106.923,89.073,106.923z"/>
		<rect x="57.855" y="216.785" style="fill:#010002;" width="62.437" height="62.437"/>
		<path style="fill:#010002;" d="M0,42.6v313.213h398.414V42.6H0z M132.226,291.156H45.921v-86.305h86.305V291.156z M89.073,181.288
			c-23.796,0-43.152-19.357-43.152-43.152s19.357-43.152,43.152-43.152s43.152,19.357,43.152,43.152S112.869,181.288,89.073,181.288
			z M350.231,285.929H207.027v-11.934h143.205V285.929z M350.231,226.261H207.027v-11.934h143.205V226.261z M350.231,166.592
			H207.027v-11.934h143.205V166.592z M350.231,106.923H207.027V94.99h143.205V106.923z"/>
	</g>
</g>
<g>
</g>
<g>
</g>
<g>
</g>
<g>
</g>
<g>
</g>
<g>
</g>
<g>
</g>
<g>
</g>
<g>
</g>
<g>
</g>
<g>
</g>
<g>
</g>
<g>
</g>
<g>
</g>
<g>
</g>
</svg>
