<svg id="Layer_1" enable-background="new 0 0 496 496" height="512" viewBox="0 0 496 496" width="512" xmlns="http://www.w3.org/2000/svg"><path d="m347.57 80h-284.82c-10.34 0-18.75 8.41-18.75 18.75v378.5c0 10.34 8.41 18.75 18.75 18.75h284.82c10.33 0 18.74-8.41 18.74-18.75v-378.5c0-10.34-8.41-18.75-18.74-18.75zm-63.57 264h-152c-8.84 0-16-7.16-16-16s7.16-16 16-16h152c8.84 0 16 7.16 16 16s-7.16 16-16 16zm0-64h-152c-8.84 0-16-7.16-16-16s7.16-16 16-16h152c8.84 0 16 7.16 16 16s-7.16 16-16 16zm0-64h-152c-8.84 0-16-7.16-16-16s7.16-16 16-16h152c8.84 0 16 7.16 16 16s-7.16 16-16 16z"/><path d="m452 48v352c0 24.16-19.441 48-53.69 48v-349.25c0-27.99-22.76-50.75-50.74-50.75h-249.88c0-26.47 22.81-48 50.84-48h252.63c28.03 0 50.84 21.53 50.84 48z"/></svg>