<svg height="512" viewBox="0 0 48 48" width="512" xmlns="http://www.w3.org/2000/svg"><g id="00-38-apps,-arrange,-array,-grid,-layout,-menu,-view" fill="none" fill-rule="evenodd"><path id="Shape" d="m39 25c1.5976809 0 2.9949073 1.3006635 3 3v11c0 1.5976809-1.284494 3-3 3h-11c-1.5976809 0-2.9949073-1.3016253-3-3v-11c0-1.5976809 1.2882162-3 3-3zm-19 0c1.5976809 0 2.9949073 1.3006635 3 3v11c0 1.5976809-1.284494 3-3 3h-11c-1.59768088 0-2.99490731-1.3016253-3-3v-11c0-1.5976809 1.2882162-3 3-3zm19-19c1.5976809 0 2.9949073 1.30066351 3 3v11c0 1.5976809-1.284494 3-3 3h-11c-1.5976809 0-2.9949073-1.3016253-3-3v-11c0-1.59768088 1.2882162-3 3-3zm-19 0c1.5976809 0 2.9949073 1.30066351 3 3v11c0 1.5976809-1.284494 3-3 3h-11c-1.59768088 0-2.99490731-1.3016253-3-3v-11c0-1.59768088 1.2882162-3 3-3z" fill="rgb(0,0,0)" fill-rule="nonzero"/></g></svg>