<svg id="Capa_1" enable-background="new 0 0 512 512" height="512" viewBox="0 0 512 512" width="512" xmlns="http://www.w3.org/2000/svg"><path d="m451 422h-150c-16.538 0-30 13.462-30 30h-30c0-16.538-13.462-30-30-30h-150v-272h-61v332h189.789l30 30h72.422l30-30h189.789v-332h-61z"/><path d="m42.455 45 90 45h18.545v-90h-18.545z"/><path d="m181 0h270v90h-270z"/><path d="m271 150v250.43c8.871-5.186 19.006-8.43 30-8.43h120v-272h-120c-16.538 0-30 13.462-30 30zm30 31h90v30h-90zm0 60h90v30h-90zm0 60h90v30h-90z"/><path d="m91 392h120c10.994 0 21.129 3.245 30 8.43v-250.43c0-16.538-13.462-30-30-30h-120zm30-211h90v30h-90zm0 60h90v30h-90zm0 60h90v30h-90z"/></svg>