<?xml version="1.0" encoding="iso-8859-1"?>
<!-- Generator: Adobe Illustrator 19.0.0, SVG Export Plug-In . SVG Version: 6.00 Build 0)  -->
<svg version="1.1" id="Capa_1" xmlns="http://www.w3.org/2000/svg" xmlns:xlink="http://www.w3.org/1999/xlink" x="0px" y="0px"
	 viewBox="0 0 512.003 512.003" style="enable-background:new 0 0 512.003 512.003;" xml:space="preserve">
<g>
	<g>
		<path d="M151.001,390.003v15c0,19.998,13.2,36.791,31.278,42.634c6.05,35.327,36.696,64.366,73.722,64.366
			s67.672-29.039,73.722-64.366c18.078-5.843,31.278-22.635,31.278-42.634v-15H151.001z"/>
	</g>
</g>
<g>
	<g>
		<path d="M217.344,4.045C149.639,18.181,94.502,73.142,80.146,140.818c-12.202,57.583,2.857,115.386,41.294,158.599
			c15.54,17.487,25.02,38.593,28.129,60.586h212.915c3.215-21.889,12.973-43.33,28.956-61.568
			c28.74-32.769,45.561-74.839,45.561-118.433C437.001,65.821,331.274-19.94,217.344,4.045z M361.001,195.003
			c-8.291,0-15-6.709-15-15c0-49.629-40.386-90-90.015-90c-8.291,0-15-6.709-15-15c0-8.291,6.709-15,15-15
			c66.182,0,120.015,53.833,120.015,120C376.001,188.294,369.292,195.003,361.001,195.003z"/>
	</g>
</g>
<g>
	<g>
		<path d="M45.001,180.003h-30c-8.291,0-15,6.709-15,15c0,8.291,6.709,15,15,15h30c8.291,0,15-6.709,15-15
			C60.001,186.712,53.292,180.003,45.001,180.003z"/>
	</g>
</g>
<g>
	<g>
		<path d="M51.212,105.003L30.001,83.792c-5.86-5.86-15.352-5.86-21.211,0c-5.859,5.859-5.859,15.352,0,21.211l21.211,21.211
			c5.859,5.859,15.352,5.859,21.211,0C57.071,120.355,57.071,110.862,51.212,105.003z"/>
	</g>
</g>
<g>
	<g>
		<path d="M51.212,263.792c-5.859-5.859-15.352-5.86-21.211,0L8.79,285.003c-5.859,5.859-5.859,15.352,0,21.211
			c5.859,5.859,15.352,5.859,21.211,0l21.211-21.211C57.071,279.144,57.071,269.651,51.212,263.792z"/>
	</g>
</g>
<g>
	<g>
		<path d="M497.001,180.003h-30c-8.291,0-15,6.709-15,15c0,8.291,6.709,15,15,15h30c8.291,0,15-6.709,15-15
			C512.001,186.712,505.292,180.003,497.001,180.003z"/>
	</g>
</g>
<g>
	<g>
		<path d="M503.212,83.792c-5.859-5.859-15.352-5.859-21.211,0l-21.211,21.211c-5.859,5.859-5.859,15.352,0,21.211
			c5.859,5.859,15.351,5.859,21.211,0l21.211-21.211C509.071,99.144,509.071,89.651,503.212,83.792z"/>
	</g>
</g>
<g>
	<g>
		<path d="M503.212,285.003l-21.211-21.211c-5.859-5.859-15.352-5.859-21.211,0s-5.859,15.352,0,21.211l21.211,21.211
			c5.859,5.859,15.352,5.859,21.211,0S509.071,290.862,503.212,285.003z"/>
	</g>
</g>
<g>
</g>
<g>
</g>
<g>
</g>
<g>
</g>
<g>
</g>
<g>
</g>
<g>
</g>
<g>
</g>
<g>
</g>
<g>
</g>
<g>
</g>
<g>
</g>
<g>
</g>
<g>
</g>
<g>
</g>
</svg>
