<svg height="512pt" viewBox="-26 0 512 512" width="512pt" xmlns="http://www.w3.org/2000/svg"><path d="m230.398438 230.398438c-7.066407 0-12.796876 5.730468-12.796876 12.800781v25.601562c0 7.070313 5.730469 12.800781 12.796876 12.800781 7.070312 0 12.800781-5.730468 12.800781-12.800781v-25.601562c0-7.070313-5.730469-12.800781-12.800781-12.800781zm0 0"/><path d="m230.398438 128c-7.066407 0-12.796876 5.730469-12.796876 12.800781v25.597657c0 7.070312 5.730469 12.800781 12.796876 12.800781 7.070312 0 12.800781-5.730469 12.800781-12.800781v-25.597657c0-7.070312-5.730469-12.800781-12.800781-12.800781zm0 0"/><path d="m230.398438 435.199219c-7.066407 0-12.796876 5.730469-12.796876 12.800781v51.199219c0 7.070312 5.730469 12.800781 12.796876 12.800781 7.070312 0 12.800781-5.730469 12.800781-12.800781v-51.199219c0-7.070312-5.730469-12.800781-12.800781-12.800781zm0 0"/><path d="m230.398438 332.800781c-7.066407 0-12.796876 5.730469-12.796876 12.800781v25.597657c0 7.070312 5.730469 12.800781 12.796876 12.800781 7.070312 0 12.800781-5.730469 12.800781-12.800781v-25.597657c0-7.070312-5.730469-12.800781-12.800781-12.800781zm0 0"/><path d="m230.398438 0c-7.066407 0-12.796876 5.730469-12.796876 12.800781v51.199219c0 7.070312 5.730469 12.800781 12.796876 12.800781 7.070312 0 12.800781-5.730469 12.800781-12.800781v-51.199219c0-7.070312-5.730469-12.800781-12.800781-12.800781zm0 0"/><path d="m145.550781 128.925781-128-51.199219c-6.554687-2.628906-14 .550782-16.632812 7.105469-.605469 1.515625-.917969 3.132813-.917969 4.769531v332.796876c0 7.070312 5.730469 12.800781 12.800781 12.800781 1.628907.003906 3.242188-.308594 4.75-.925781l128-51.199219c4.859375-1.9375 8.050781-6.640625 8.050781-11.875v-230.398438c0-5.234375-3.191406-9.9375-8.050781-11.875zm0 0"/><path d="m455.175781 79c-3.511719-2.398438-7.988281-2.878906-11.925781-1.28125l-128 51.199219c-4.863281 1.9375-8.054688 6.644531-8.050781 11.882812v230.398438c0 5.234375 3.1875 9.9375 8.050781 11.875l128 51.199219c1.507812.617187 3.121094.929687 4.75.925781 7.070312 0 12.800781-5.730469 12.800781-12.800781v-332.796876c0-4.25-2.109375-8.21875-5.625-10.601562zm0 0"/></svg>