<svg viewBox="0 0 512 512" xmlns="http://www.w3.org/2000/svg"><path d="m256 0c-8.285156 0-15 6.714844-15 15v482c0 8.285156 6.714844 15 15 15s15-6.714844 15-15v-482c0-8.285156-6.714844-15-15-15zm0 0"/><path d="m80.332031 40.921875-71.546875 71.546875h71.546875zm0 0"/><path d="m431.667969 40.921875v71.546875h71.546875zm0 0"/><path d="m416.667969 142.46875c-8.285157 0-15-6.71875-15-15v-95.335938h-100.667969v447.734376h196c8.285156 0 15-6.714844 15-15v-322.398438zm0 0"/><path d="m110.332031 127.46875c0 8.28125-6.714843 15-15 15h-95.332031v322.398438c0 8.285156 6.714844 15 15 15h196v-447.734376h-100.667969zm0 0"/></svg>