<svg id="Capa_1" enable-background="new 0 0 512 512" height="512" viewBox="0 0 512 512" width="512" xmlns="http://www.w3.org/2000/svg"><path d="m252.136 269.777c0 18.053 14.688 32.74 32.74 32.74h70.513v-65.48h-70.513c-18.053 0-32.74 14.688-32.74 32.74z"/><path d="m97.162 101.655h153.535v38.116h-153.535z"/><path d="m222.136 269.777c0-34.595 28.146-62.74 62.74-62.74h62.983v-194.037h-347.859v486h347.859v-166.482h-62.983c-34.595 0-62.74-28.146-62.74-62.741zm-154.974-198.122h213.535v98.116h-213.535z"/><path d="m400.188 180.484h111.812v191.266h-111.812z"/><path d="m456.094 80.428c-30.826 0-55.905 25.079-55.905 55.906v14.15h111.811v-14.15c0-30.827-25.079-55.906-55.906-55.906z"/><path d="m456.094 498.74 55.888-96.99h-111.775z"/><path d="m512 401.75v-.031l-.018.031z"/><path d="m400.188 401.75h.019l-.019-.031z"/></svg>