<?xml version="1.0" encoding="iso-8859-1"?>
<!-- Generator: Adobe Illustrator 16.0.0, SVG Export Plug-In . SVG Version: 6.00 Build 0)  -->
<!DOCTYPE svg PUBLIC "-//W3C//DTD SVG 1.1//EN" "http://www.w3.org/Graphics/SVG/1.1/DTD/svg11.dtd">
<svg version="1.1" id="Capa_1" xmlns="http://www.w3.org/2000/svg" xmlns:xlink="http://www.w3.org/1999/xlink" x="0px" y="0px"
	 width="565.488px" height="565.488px" viewBox="0 0 565.488 565.488" style="enable-background:new 0 0 565.488 565.488;"
	 xml:space="preserve">
<g>
	<g>
		<path d="M382.008,186.752h0.012V61.69h5.564c17.031,0,30.844-13.807,30.844-30.845S404.621,0,387.584,0H177.912
			c-17.032,0-30.845,13.807-30.845,30.845c0,17.032,13.807,30.845,30.845,30.845h5.563v125.062h0.012
			c-52.43,33.023-87.296,109.75-87.296,176.293h152.89V489.74c0,15.496,12.558,75.748,28.054,75.748h11.218
			c15.496,0,28.055-60.252,28.055-75.748V363.045h152.889C469.303,296.502,434.438,219.775,382.008,186.752z"/>
	</g>
</g>
<g>
</g>
<g>
</g>
<g>
</g>
<g>
</g>
<g>
</g>
<g>
</g>
<g>
</g>
<g>
</g>
<g>
</g>
<g>
</g>
<g>
</g>
<g>
</g>
<g>
</g>
<g>
</g>
<g>
</g>
</svg>
