<svg height="512pt" viewBox="0 -44 512 512" width="512pt" xmlns="http://www.w3.org/2000/svg"><path d="m143.464844 241.820312c10.816406 0 19.613281-8.800781 19.613281-19.617187s-8.796875-19.617187-19.613281-19.617187-19.617188 8.800781-19.617188 19.617187 8.796875 19.617187 19.617188 19.617187zm0 0"/><path d="m143.464844 272.160156c-24.839844 0-45.046875 20.207032-45.046875 45.042969v5.8125h90.089843v-5.8125c0-24.839844-20.207031-45.042969-45.042968-45.042969zm0 0"/><path d="m512 94.21875v-94.21875h-512v94.21875zm-67.5-62.886719h30.5v30.5h-30.5zm-46.5 0h30.5v30.5h-30.5zm-46.5 0h30.5v30.5h-30.5zm0 0"/><path d="m0 124.21875v298.78125h512v-298.78125zm218.507812 228.792969h-150.089843v-35.808594c0-27.171875 14.515625-51.015625 36.199219-64.1875-6.734376-8.46875-10.769532-19.175781-10.769532-30.8125 0-27.359375 22.257813-49.617187 49.617188-49.617187 27.355468 0 49.613281 22.257812 49.613281 49.617187 0 11.636719-4.035156 22.34375-10.769531 30.8125 21.683594 13.171875 36.199218 37.015625 36.199218 64.1875zm220.46875-14.800781h-158.976562v-30h158.976562zm0-59.273438h-158.976562v-30h158.976562zm0-59.269531h-158.976562v-30h158.976562zm0 0"/></svg>