<?xml version="1.0" encoding="iso-8859-1"?>
<!-- Generator: Adobe Illustrator 19.0.0, SVG Export Plug-In . SVG Version: 6.00 Build 0)  -->
<svg version="1.1" id="Layer_1" xmlns="http://www.w3.org/2000/svg" xmlns:xlink="http://www.w3.org/1999/xlink" x="0px" y="0px"
	 viewBox="0 0 512 512" style="enable-background:new 0 0 512 512;" xml:space="preserve">
<g>
	<g>
		<path d="M150,241c-16.538,0-30,13.462-30,30c0,16.538,13.462,30,30,30c16.538,0,30-13.462,30-30C180,254.462,166.538,241,150,241z
			"/>
	</g>
</g>
<g>
	<g>
		<path d="M467,31H45C20.186,31,0,51.186,0,76v75h512V76C512,51.186,491.814,31,467,31z M75,121c-8.284,0-15-6.716-15-15
			s6.716-15,15-15s15,6.716,15,15S83.284,121,75,121z M135,121c-8.284,0-15-6.716-15-15s6.716-15,15-15s15,6.716,15,15
			S143.284,121,135,121z M195,121c-8.284,0-15-6.716-15-15s6.716-15,15-15s15,6.716,15,15S203.284,121,195,121z"/>
	</g>
</g>
<g>
	<g>
		<path d="M157.925,331h-15.85C113.364,331,90,354.364,90,383.075V391h120v-7.925C210,354.364,186.636,331,157.925,331z"/>
	</g>
</g>
<g>
	<g>
		<rect x="300" y="241" width="122" height="30"/>
	</g>
</g>
<g>
	<g>
		<path d="M0,181v255c0,24.814,20.186,45,45,45h422c24.814,0,45-20.186,45-45V181H0z M240,406c0,8.291-6.709,15-15,15H75
			c-8.291,0-15-6.709-15-15v-22.925c0-31.853,18.419-59.214,44.995-72.812C95.779,299.713,90,286.081,90,271
			c0-33.091,26.909-60,60-60s60,26.909,60,60c0,15.081-5.779,28.713-14.995,39.263C221.581,323.861,240,351.222,240,383.075V406z
			 M437,421H285c-8.291,0-15-6.709-15-15c0-8.291,6.709-15,15-15h152c8.291,0,15,6.709,15,15C452,414.291,445.291,421,437,421z
			 M437,361H285c-8.291,0-15-6.709-15-15c0-8.291,6.709-15,15-15h152c8.291,0,15,6.709,15,15C452,354.291,445.291,361,437,361z
			 M452,286c0,8.291-6.709,15-15,15H285c-8.291,0-15-6.709-15-15v-60c0-8.291,6.709-15,15-15h152c8.291,0,15,6.709,15,15V286z"/>
	</g>
</g>
<g>
</g>
<g>
</g>
<g>
</g>
<g>
</g>
<g>
</g>
<g>
</g>
<g>
</g>
<g>
</g>
<g>
</g>
<g>
</g>
<g>
</g>
<g>
</g>
<g>
</g>
<g>
</g>
<g>
</g>
</svg>
