<svg id="Capa_1" enable-background="new 0 0 512 512" height="512" viewBox="0 0 512 512" width="512" xmlns="http://www.w3.org/2000/svg"><g><path d="m226.728 192.539c-9.615-10.246-23.27-16.656-38.429-16.656h-188.299v306.885h206.378c17.841 0 32.165 12.48 34.622 29.232v-203.917l-52.284 15.2zm-170.536 48.47h81.245v29.999h-81.245zm0 60.002h81.245v29.999h-81.245zm134.747 60.001v29.999h-134.747v-29.999z"/><path d="m271 299.361v212.639c1.318-6.989 4.707-13.841 9.874-19 6.611-6.6 15.309-10.232 24.524-10.232h206.602v-306.885h-77.318l-106.999 106.998z"/><path d="m442.547 11.9-17.945 17.945 57.553 57.552 17.945-17.944c15.867-15.867 15.867-41.685 0-57.553-15.867-15.866-41.686-15.867-57.553 0z"/><path d="m405.777 50.069h30.918v81.392h-30.918z" transform="matrix(.707 -.707 .707 .707 59.197 324.442)"/><path d="m282.887 126.203h124.427v81.392h-124.427z" transform="matrix(.707 -.707 .707 .707 -16.938 292.907)"/><path d="m253.19 205.397-21.893 75.306 75.306-21.894z"/></g></svg>