<svg height="681pt" viewBox="-21 -127 681.33385 681" width="681pt" xmlns="http://www.w3.org/2000/svg"><path d="m474.152344 407.738281v-138.84375l-29.519532 29.527344-140.347656 29.144531 29.160156-140.34375 116.097657-116.097656h-150.410157c-23.898437 0-43.335937 19.4375-43.335937 43.339844v305.90625c12.527344-8.003906 27.402344-12.632813 43.335937-12.632813zm0 0"/><path d="m540.34375 33.253906 40.15625-40.15625 58.25 58.25-40.15625 40.15625zm0 0"/><path d="m218.359375 420.371094v-305.90625c0-23.902344-19.441406-43.339844-43.339844-43.339844h-175.019531v336.613281h175.019531c15.9375 0 30.808594 4.628907 43.339844 12.632813zm-61.136719-82.75h-101.078125v-37.4375h101.078125zm6.082032-73.242188h-113.226563v-37.429687h113.226563zm0-78.308594h-113.226563v-37.4375h113.226563zm0 0"/><path d="m366.503906 212.132812-13.964844 67.179688 67.191407-13.953125zm0 0"/><path d="m390.453125 183.148438 123.421875-123.421876 58.253906 58.253907-123.421875 123.421875zm0 0"/></svg>