<?xml version="1.0" encoding="iso-8859-1"?>
<!-- Generator: Adobe Illustrator 19.0.0, SVG Export Plug-In . SVG Version: 6.00 Build 0)  -->
<svg version="1.1" id="Layer_1" xmlns="http://www.w3.org/2000/svg" xmlns:xlink="http://www.w3.org/1999/xlink" x="0px" y="0px"
	 viewBox="0 0 330 330" style="enable-background:new 0 0 330 330;" xml:space="preserve">
<g id="XMLID_28_">
	<path id="XMLID_29_" d="M281.673,48.327C250.509,17.163,209.073,0,165,0S79.492,17.163,48.328,48.327
		c-64.333,64.333-64.334,169.011-0.001,233.345C79.491,312.837,120.927,330,165,330s85.509-17.163,116.673-48.328
		C346.006,217.338,346.006,112.66,281.673,48.327z M260.46,260.459C234.962,285.957,201.059,300,165,300
		s-69.962-14.043-95.46-39.541C16.904,207.822,16.905,122.177,69.541,69.54C95.039,44.042,128.94,30,165,30
		s69.962,14.042,95.46,39.54C313.095,122.176,313.095,207.822,260.46,260.459z"/>
	<path id="XMLID_71_" d="M186.213,165l53.032-53.033c5.858-5.857,5.858-15.355,0-21.213c-5.857-5.857-15.355-5.857-21.213,0
		L165,143.787l-53.033-53.033c-5.857-5.857-15.355-5.857-21.213,0c-5.858,5.857-5.858,15.355,0,21.213L143.787,165l-53.033,53.033
		c-5.858,5.857-5.858,15.355,0,21.213c2.929,2.929,6.768,4.394,10.607,4.394c3.839,0,7.678-1.465,10.606-4.394L165,186.213
		l53.033,53.032c2.929,2.929,6.768,4.394,10.606,4.394c3.839,0,7.678-1.465,10.607-4.394c5.858-5.857,5.858-15.355,0-21.213
		L186.213,165z"/>
</g>
<g>
</g>
<g>
</g>
<g>
</g>
<g>
</g>
<g>
</g>
<g>
</g>
<g>
</g>
<g>
</g>
<g>
</g>
<g>
</g>
<g>
</g>
<g>
</g>
<g>
</g>
<g>
</g>
<g>
</g>
</svg>
