<?xml version="1.0" encoding="iso-8859-1"?>
<!-- Generator: Adobe Illustrator 19.0.0, SVG Export Plug-In . SVG Version: 6.00 Build 0)  -->
<svg version="1.1" id="Layer_1" xmlns="http://www.w3.org/2000/svg" xmlns:xlink="http://www.w3.org/1999/xlink" x="0px" y="0px"
	 viewBox="0 0 330 330" style="enable-background:new 0 0 330 330;" xml:space="preserve">
<path id="XMLID_445_" d="M310.01,185c0-3.608-1.287-6.907-3.41-9.495c-0.02-0.023-0.038-0.048-0.058-0.071
	c-0.278-0.335-0.571-0.656-0.878-0.966c-0.041-0.041-0.081-0.083-0.122-0.124c-0.134-0.132-0.258-0.275-0.397-0.402l-55.155-55.155
	V15c0-8.284-6.716-15-15-15h-200c-8.284,0-15,6.716-15,15v240c0,8.284,6.716,15,15,15h45v45c0,8.284,6.716,15,15,15h200
	c8.284,0,15-6.716,15-15V185.387C309.994,185.257,310.01,185.131,310.01,185z M199.99,111.213L258.777,170H199.99V111.213z
	 M49.99,240V30h170v58.787L195.6,64.396c-0.005-0.004-0.011-0.009-0.016-0.014c-0.307-0.306-0.627-0.593-0.955-0.869
	c-0.104-0.087-0.211-0.168-0.317-0.253c-0.24-0.19-0.484-0.374-0.733-0.549c-0.125-0.087-0.251-0.174-0.379-0.258
	c-0.262-0.172-0.529-0.333-0.801-0.487c-0.112-0.064-0.221-0.133-0.335-0.194c-0.363-0.194-0.733-0.371-1.108-0.534
	c-0.154-0.067-0.313-0.125-0.471-0.187c-0.248-0.098-0.498-0.19-0.75-0.274c-0.177-0.059-0.354-0.116-0.534-0.168
	c-0.284-0.083-0.571-0.155-0.86-0.222c-0.135-0.031-0.268-0.068-0.405-0.096c-0.418-0.084-0.839-0.145-1.263-0.193
	c-0.135-0.015-0.27-0.024-0.406-0.036c-0.347-0.03-0.694-0.047-1.043-0.053C185.145,60.011,185.068,60,184.99,60h-90
	c-8.284,0-15,6.716-15,15v165H49.99z M109.99,300V90h60v95c0,8.284,6.716,15,15,15h95v100H109.99z"/>
<g>
</g>
<g>
</g>
<g>
</g>
<g>
</g>
<g>
</g>
<g>
</g>
<g>
</g>
<g>
</g>
<g>
</g>
<g>
</g>
<g>
</g>
<g>
</g>
<g>
</g>
<g>
</g>
<g>
</g>
</svg>
