<?xml version="1.0" encoding="iso-8859-1"?>
<!-- Generator: Adobe Illustrator 19.0.0, SVG Export Plug-In . SVG Version: 6.00 Build 0)  -->
<svg version="1.1" id="Layer_1" xmlns="http://www.w3.org/2000/svg" xmlns:xlink="http://www.w3.org/1999/xlink" x="0px" y="0px"
	 viewBox="0 0 330 330" style="enable-background:new 0 0 330 330;" xml:space="preserve">
<path id="XMLID_459_" d="M300.01,123c0-3.606-1.287-6.903-3.407-9.49c-0.021-0.026-0.042-0.053-0.064-0.079
	c-0.276-0.332-0.567-0.65-0.871-0.958c-0.044-0.044-0.087-0.089-0.131-0.133c-0.133-0.131-0.255-0.272-0.393-0.398L187.593,4.393
	c-0.311-0.311-0.637-0.602-0.97-0.881c-0.102-0.085-0.208-0.165-0.312-0.248c-0.242-0.192-0.488-0.378-0.741-0.554
	c-0.123-0.086-0.246-0.172-0.372-0.254c-0.267-0.174-0.538-0.338-0.814-0.495c-0.108-0.061-0.212-0.127-0.322-0.186
	c-0.365-0.196-0.738-0.374-1.117-0.538c-0.147-0.064-0.299-0.119-0.449-0.178c-0.258-0.102-0.517-0.198-0.78-0.285
	c-0.168-0.056-0.336-0.11-0.507-0.16c-0.304-0.089-0.61-0.166-0.918-0.236c-0.117-0.026-0.232-0.059-0.35-0.083
	c-0.426-0.085-0.857-0.148-1.29-0.197c-0.12-0.013-0.241-0.021-0.362-0.032c-0.366-0.032-0.733-0.05-1.101-0.056
	C177.122,0.009,177.055,0,176.987,0H44.99c-8.284,0-15,6.716-15,15v300c0,8.284,6.716,15,15,15h240c8.284,0,15-6.716,15-15V123.396
	C299.993,123.264,300.01,123.134,300.01,123z M191.987,51.212L248.776,108h-56.789V51.212z M59.99,300V30h101.997v93
	c0,8.284,6.716,15,15,15h93.003v162H59.99z"/>
<g>
</g>
<g>
</g>
<g>
</g>
<g>
</g>
<g>
</g>
<g>
</g>
<g>
</g>
<g>
</g>
<g>
</g>
<g>
</g>
<g>
</g>
<g>
</g>
<g>
</g>
<g>
</g>
<g>
</g>
</svg>
