<?xml version="1.0" encoding="iso-8859-1"?>
<!-- Generator: Adobe Illustrator 19.0.0, SVG Export Plug-In . SVG Version: 6.00 Build 0)  -->
<svg version="1.1" id="Layer_1" xmlns="http://www.w3.org/2000/svg" xmlns:xlink="http://www.w3.org/1999/xlink" x="0px" y="0px"
	 viewBox="0 0 330 330" style="enable-background:new 0 0 330 330;" xml:space="preserve">
<g id="XMLID_450_">
	<path id="XMLID_451_" d="M300.01,123c0-3.109-0.959-5.987-2.578-8.382c-0.002-0.002-0.003-0.004-0.005-0.007
		c-0.257-0.379-0.53-0.743-0.819-1.096c-0.023-0.029-0.047-0.059-0.07-0.087c-0.274-0.329-0.563-0.644-0.863-0.95
		c-0.047-0.047-0.093-0.095-0.14-0.142c-0.132-0.13-0.253-0.27-0.39-0.395L187.594,4.393c-0.311-0.311-0.637-0.602-0.969-0.881
		c-0.103-0.085-0.209-0.167-0.313-0.25c-0.241-0.191-0.486-0.375-0.737-0.551c-0.125-0.088-0.25-0.174-0.379-0.258
		c-0.26-0.17-0.525-0.33-0.795-0.483c-0.114-0.065-0.226-0.136-0.342-0.198c-0.361-0.193-0.73-0.369-1.104-0.531
		c-0.158-0.069-0.322-0.129-0.483-0.192c-0.243-0.095-0.487-0.186-0.734-0.268c-0.181-0.061-0.361-0.118-0.545-0.171
		c-0.278-0.082-0.56-0.152-0.842-0.217c-0.142-0.032-0.279-0.072-0.423-0.1c-0.415-0.083-0.834-0.144-1.256-0.191
		c-0.137-0.016-0.276-0.025-0.415-0.036c-0.343-0.029-0.688-0.047-1.033-0.053C177.145,0.011,177.067,0,176.987,0H44.99
		c-8.284,0-15,6.716-15,15v300c0,8.284,6.716,15,15,15h240c8.284,0,15-6.716,15-15V123.387
		C299.993,123.257,300.01,123.131,300.01,123z M191.987,51.212L248.776,108h-56.789V51.212z M59.99,300V30h101.997v93
		c0,8.284,6.716,15,15,15h93.003v162H59.99z"/>
	<path id="XMLID_455_" d="M214.99,240h-100c-8.284,0-15,6.716-15,15c0,8.284,6.716,15,15,15h100c8.284,0,15-6.716,15-15
		C229.99,246.716,223.274,240,214.99,240z"/>
	<path id="XMLID_458_" d="M214.99,180h-100c-8.284,0-15,6.716-15,15s6.716,15,15,15h100c8.284,0,15-6.716,15-15
		S223.274,180,214.99,180z"/>
</g>
<g>
</g>
<g>
</g>
<g>
</g>
<g>
</g>
<g>
</g>
<g>
</g>
<g>
</g>
<g>
</g>
<g>
</g>
<g>
</g>
<g>
</g>
<g>
</g>
<g>
</g>
<g>
</g>
<g>
</g>
</svg>
