<?xml version="1.0" encoding="iso-8859-1"?>
<!-- Generator: Adobe Illustrator 19.0.0, SVG Export Plug-In . SVG Version: 6.00 Build 0)  -->
<svg version="1.1" id="Layer_1" xmlns="http://www.w3.org/2000/svg" xmlns:xlink="http://www.w3.org/1999/xlink" x="0px" y="0px"
	 viewBox="0 0 330 330" style="enable-background:new 0 0 330 330;" xml:space="preserve">
<path id="XMLID_245_" d="M0.77,124.743l60,180C62.812,310.869,68.544,315,75,315h240c0.571,0,1.133-0.039,1.689-0.101
	c0.149-0.017,0.294-0.046,0.442-0.068c0.413-0.059,0.821-0.129,1.223-0.221c0.16-0.037,0.316-0.08,0.475-0.122
	c0.391-0.103,0.773-0.219,1.149-0.352c0.15-0.054,0.3-0.107,0.449-0.165c0.39-0.151,0.771-0.32,1.144-0.503
	c0.123-0.06,0.248-0.114,0.368-0.178c0.476-0.248,0.939-0.517,1.382-0.813c0.012-0.008,0.023-0.014,0.034-0.021
	c0.454-0.305,0.888-0.638,1.306-0.99c0.122-0.103,0.236-0.216,0.355-0.323c0.287-0.259,0.566-0.525,0.834-0.805
	c0.131-0.138,0.258-0.279,0.384-0.422c0.254-0.287,0.495-0.585,0.728-0.892c0.066-0.088,0.143-0.165,0.207-0.255
	c0.035-0.049,0.063-0.103,0.097-0.151c0.283-0.402,0.547-0.818,0.79-1.248c0.027-0.047,0.06-0.092,0.086-0.14
	c0.272-0.495,0.516-1.008,0.732-1.535c0.031-0.076,0.055-0.155,0.085-0.231c0.17-0.433,0.32-0.874,0.45-1.324
	c0.043-0.151,0.078-0.304,0.117-0.456c0.095-0.376,0.177-0.755,0.243-1.141c0.032-0.189,0.062-0.377,0.087-0.566
	c0.046-0.351,0.076-0.704,0.099-1.063c0.013-0.21,0.027-0.42,0.032-0.631c0.001-0.095,0.014-0.188,0.014-0.283V30
	c0-8.284-6.716-15-15-15H195c-8.284,0-15,6.716-15,15v15H75c-8.284,0-15,6.716-15,15v45H15c-4.821,0-9.35,2.318-12.169,6.229
	C0.012,115.141-0.755,120.17,0.77,124.743z M300,45v162.565l-30.77-92.309C267.189,109.131,261.457,105,255,105H90V75h105
	c8.284,0,15-6.716,15-15V45H300z M35.812,135h208.377l50,150H85.812L35.812,135z"/>
<g>
</g>
<g>
</g>
<g>
</g>
<g>
</g>
<g>
</g>
<g>
</g>
<g>
</g>
<g>
</g>
<g>
</g>
<g>
</g>
<g>
</g>
<g>
</g>
<g>
</g>
<g>
</g>
<g>
</g>
</svg>
