<?xml version="1.0" encoding="iso-8859-1"?>
<!-- Generator: Adobe Illustrator 19.0.0, SVG Export Plug-In . SVG Version: 6.00 Build 0)  -->
<svg version="1.1" id="Layer_1" xmlns="http://www.w3.org/2000/svg" xmlns:xlink="http://www.w3.org/1999/xlink" x="0px" y="0px"
	 viewBox="0 0 277.279 277.279" style="enable-background:new 0 0 277.279 277.279;" xml:space="preserve">
<g id="XMLID_105_">
	<path id="XMLID_106_" d="M149.245,191.671l-42.425,42.426c0,0,0,0.001-0.001,0.001c0,0,0,0.001-0.001,0.001
		c-17.544,17.545-46.092,17.546-63.638,0c-8.5-8.5-13.18-19.801-13.18-31.82c0-12.018,4.68-23.317,13.177-31.817
		c0.001-0.001,0.002-0.002,0.003-0.003l42.425-42.426c5.857-5.858,5.857-15.356-0.001-21.213c-5.857-5.857-15.355-5.857-21.213,0
		l-42.425,42.426c-0.003,0.003-0.006,0.007-0.009,0.01C7.798,163.42,0,182.251,0,202.279c0,20.033,7.801,38.867,21.967,53.033
		C36.589,269.933,55.794,277.244,75,277.244c19.206,0,38.412-7.311,53.032-21.932c0,0,0-0.001,0-0.001
		c0.001,0,0.001-0.001,0.001-0.001l42.425-42.426c5.857-5.857,5.857-15.355-0.001-21.213
		C164.601,185.814,155.104,185.814,149.245,191.671z"/>
	<path id="XMLID_107_" d="M277.279,75c0-20.033-7.802-38.867-21.968-53.033c-29.243-29.242-76.824-29.241-106.065,0
		c-0.001,0.002-0.003,0.003-0.004,0.005l-42.424,42.423c-5.858,5.857-5.858,15.356,0,21.213c2.93,2.93,6.768,4.394,10.607,4.394
		c3.838,0,7.678-1.465,10.606-4.394l42.424-42.423c0.001-0.002,0.003-0.003,0.005-0.005c17.544-17.544,46.092-17.545,63.638,0
		c8.499,8.5,13.181,19.801,13.181,31.82c0,12.018-4.68,23.317-13.178,31.817c-0.001,0.001-0.002,0.002-0.003,0.003l-42.425,42.426
		c-5.857,5.857-5.857,15.355,0.001,21.213c2.929,2.929,6.768,4.394,10.606,4.394c3.839,0,7.678-1.465,10.607-4.394l42.425-42.426
		c0.003-0.003,0.006-0.007,0.009-0.01C269.48,113.859,277.279,95.028,277.279,75z"/>
	<path id="XMLID_108_" d="M85.607,191.671c2.929,2.929,6.768,4.394,10.606,4.394c3.839,0,7.678-1.465,10.607-4.394l84.852-84.852
		c5.858-5.857,5.858-15.355,0-21.213c-5.857-5.857-15.355-5.857-21.213,0l-84.852,84.851
		C79.749,176.316,79.749,185.814,85.607,191.671z"/>
</g>
<g>
</g>
<g>
</g>
<g>
</g>
<g>
</g>
<g>
</g>
<g>
</g>
<g>
</g>
<g>
</g>
<g>
</g>
<g>
</g>
<g>
</g>
<g>
</g>
<g>
</g>
<g>
</g>
<g>
</g>
</svg>
