<?xml version="1.0" encoding="iso-8859-1"?>
<!-- Generator: Adobe Illustrator 19.0.0, SVG Export Plug-In . SVG Version: 6.00 Build 0)  -->
<svg version="1.1" id="Layer_1" xmlns="http://www.w3.org/2000/svg" xmlns:xlink="http://www.w3.org/1999/xlink" x="0px" y="0px"
	 viewBox="0 0 317.109 317.109" style="enable-background:new 0 0 317.109 317.109;" xml:space="preserve">
<g id="XMLID_488_">
	<path id="XMLID_489_" d="M102.109,53.555h200c8.284,0,15-6.716,15-15s-6.716-15-15-15h-200c-8.284,0-15,6.716-15,15
		S93.825,53.555,102.109,53.555z"/>
	<path id="XMLID_490_" d="M302.109,83.555h-200c-8.284,0-15,6.716-15,15s6.716,15,15,15h200c8.284,0,15-6.716,15-15
		S310.394,83.555,302.109,83.555z"/>
	<path id="XMLID_491_" d="M302.109,143.555h-200c-8.284,0-15,6.716-15,15c0,8.284,6.716,15,15,15h200c8.284,0,15-6.716,15-15
		C317.109,150.27,310.394,143.555,302.109,143.555z"/>
	<path id="XMLID_493_" d="M302.109,263.555h-200c-8.284,0-15,6.716-15,15c0,8.284,6.716,15,15,15h200c8.284,0,15-6.716,15-15
		C317.109,270.271,310.394,263.555,302.109,263.555z"/>
	<path id="XMLID_494_" d="M302.109,203.555h-200c-8.284,0-15,6.716-15,15c0,8.284,6.716,15,15,15h200c8.284,0,15-6.716,15-15
		C317.109,210.27,310.394,203.555,302.109,203.555z"/>
	<path id="XMLID_495_" d="M17.826,49.036V86.6c0,4.074,3.32,7.146,7.724,7.146c4.33,0,7.721-3.139,7.721-7.146V30.425
		c0-3.96-3.247-7.062-7.392-7.062c-3.647,0-5.471,2.447-6.07,3.251c-0.025,0.034-0.05,0.068-0.074,0.102l-6.526,9.233
		c-1.267,1.378-2.394,3.582-2.394,5.696C10.814,45.675,13.948,48.962,17.826,49.036z"/>
	<path id="XMLID_496_" d="M7.63,193.746h29.406c3.849,0,6.981-3.391,6.981-7.559c0-4.124-3.131-7.479-6.981-7.479H15.684v-0.122
		c0-2.246,5.148-5.878,9.285-8.797c8.229-5.807,18.47-13.033,18.47-25.565c0-11.893-9.216-20.86-21.438-20.86
		c-11.703,0-20.527,8.044-20.527,18.711c0,6.19,4.029,8.387,7.479,8.387c4.938,0,7.889-3.676,7.889-7.23
		c0-2.21,0.568-4.746,4.994-4.746c5.979,0,6.151,5.298,6.151,5.902c0,4.762-6.18,9.213-12.157,13.519
		c-7.388,5.321-15.762,11.353-15.762,20.68v8.011C0.067,190.874,3.978,193.746,7.63,193.746z"/>
	<path id="XMLID_497_" d="M42.446,242.783c0-12.342-7.288-19.42-19.994-19.42c-16.66,0-21.062,11.898-21.062,18.189
		c0,7.325,5.445,8.115,7.786,8.115c4.559,0,7.621-3.063,7.621-7.622c0-1.753,0.624-3.766,5.487-3.766
		c3.495,0,4.918,0.503,4.918,5.568c0,4.948-1.062,5.487-5.245,5.487c-4.018,0-7.047,3.17-7.047,7.375
		c0,4.159,3.066,7.295,7.131,7.295c5.525,0,6.635,2.256,6.635,5.897v1.558c0,6.126-2.389,7.288-6.798,7.288
		c-6.083,0-6.556-3.133-6.556-4.093c0-3.631-2.407-7.294-7.785-7.294c-4.72,0-7.538,2.942-7.538,7.869
		c0,8.976,7.696,18.516,21.958,18.516c13.854,0,22.126-8.331,22.126-22.286v-1.558c0-5.722-1.83-10.465-5.264-13.876
		C41.171,252.622,42.446,248.081,42.446,242.783z"/>
</g>
<g>
</g>
<g>
</g>
<g>
</g>
<g>
</g>
<g>
</g>
<g>
</g>
<g>
</g>
<g>
</g>
<g>
</g>
<g>
</g>
<g>
</g>
<g>
</g>
<g>
</g>
<g>
</g>
<g>
</g>
</svg>
