<?xml version="1.0" encoding="iso-8859-1"?>
<!-- Generator: Adobe Illustrator 19.0.0, SVG Export Plug-In . SVG Version: 6.00 Build 0)  -->
<svg version="1.1" id="Layer_1" xmlns="http://www.w3.org/2000/svg" xmlns:xlink="http://www.w3.org/1999/xlink" x="0px" y="0px"
	 viewBox="0 0 330 330" style="enable-background:new 0 0 330 330;" xml:space="preserve">
<path id="XMLID_9_" d="M285,0H165h-50C68.131,0,30,38.132,30,85.002C30,131.87,68.131,170,115,170h35v145c0,8.284,6.716,15,15,15
	s15-6.716,15-15V155V30h30v285c0,8.284,6.716,15,15,15s15-6.716,15-15V30h45c8.284,0,15-6.716,15-15S293.284,0,285,0z M115,140
	c-30.327,0-55-24.672-55-54.998C60,54.674,84.673,30,115,30h35v110H115z"/>
<g>
</g>
<g>
</g>
<g>
</g>
<g>
</g>
<g>
</g>
<g>
</g>
<g>
</g>
<g>
</g>
<g>
</g>
<g>
</g>
<g>
</g>
<g>
</g>
<g>
</g>
<g>
</g>
<g>
</g>
</svg>
