<?xml version="1.0" encoding="iso-8859-1"?>
<!-- Generator: Adobe Illustrator 19.0.0, SVG Export Plug-In . SVG Version: 6.00 Build 0)  -->
<svg version="1.1" id="Layer_1" xmlns="http://www.w3.org/2000/svg" xmlns:xlink="http://www.w3.org/1999/xlink" x="0px" y="0px"
	 viewBox="0 0 330 330" style="enable-background:new 0 0 330 330;" xml:space="preserve">
<path id="XMLID_439_" d="M310.01,205c0-3.608-1.287-6.907-3.41-9.495c-0.02-0.023-0.038-0.048-0.058-0.071
	c-0.278-0.335-0.571-0.656-0.878-0.966c-0.041-0.041-0.081-0.083-0.122-0.124c-0.134-0.132-0.258-0.275-0.397-0.402l-55.155-55.155
	V25c0-8.284-6.716-15-15-15h-75.872c-2.061-5.822-7.6-10-14.128-10h-20c-6.528,0-12.066,4.178-14.128,10H34.99
	c-8.284,0-15,6.716-15,15v250c0,8.284,6.716,15,15,15h45v25c0,8.284,6.716,15,15,15h200c8.284,0,15-6.716,15-15V205.387
	C309.994,205.257,310.01,205.131,310.01,205z M199.99,131.213L258.777,190H199.99V131.213z M49.99,260V40h30.872
	c2.062,5.822,7.6,10,14.128,10h80c6.528,0,12.066-4.178,14.128-10h30.872v68.787L195.6,84.396c-0.005-0.004-0.011-0.009-0.016-0.014
	c-0.307-0.307-0.627-0.593-0.955-0.869c-0.104-0.087-0.211-0.168-0.316-0.252c-0.24-0.191-0.486-0.376-0.736-0.551
	c-0.124-0.087-0.248-0.173-0.375-0.256c-0.265-0.173-0.535-0.336-0.809-0.492c-0.11-0.062-0.217-0.129-0.328-0.189
	c-0.363-0.195-0.735-0.373-1.112-0.536c-0.151-0.065-0.306-0.122-0.46-0.183c-0.252-0.1-0.507-0.194-0.765-0.28
	c-0.173-0.057-0.346-0.112-0.521-0.164c-0.292-0.085-0.587-0.16-0.884-0.228c-0.129-0.029-0.254-0.064-0.384-0.09
	c-0.421-0.085-0.846-0.146-1.272-0.194c-0.129-0.014-0.26-0.023-0.39-0.034c-0.355-0.031-0.709-0.048-1.065-0.054
	C185.137,80.01,185.064,80,184.99,80h-90c-8.284,0-15,6.716-15,15v165H49.99z M109.99,300V110h60v95c0,8.284,6.716,15,15,15h95v80
	H109.99z"/>
<g>
</g>
<g>
</g>
<g>
</g>
<g>
</g>
<g>
</g>
<g>
</g>
<g>
</g>
<g>
</g>
<g>
</g>
<g>
</g>
<g>
</g>
<g>
</g>
<g>
</g>
<g>
</g>
<g>
</g>
</svg>
