<?xml version="1.0" encoding="iso-8859-1"?>
<!-- Generator: Adobe Illustrator 19.0.0, SVG Export Plug-In . SVG Version: 6.00 Build 0)  -->
<svg version="1.1" id="Layer_1" xmlns="http://www.w3.org/2000/svg" xmlns:xlink="http://www.w3.org/1999/xlink" x="0px" y="0px"
	 viewBox="0 0 353.333 353.333" style="enable-background:new 0 0 353.333 353.333;" xml:space="preserve">
<path id="XMLID_231_" d="M348.108,327.727l-30.938-30.938c7.572-11.538,11.995-25.32,11.995-40.123
	c0-35.296-25.067-64.843-58.334-71.786v-59.494c0.003-0.13,0.02-0.256,0.02-0.387c0-3.608-1.288-6.907-3.41-9.495
	c-0.02-0.024-0.038-0.048-0.058-0.072c-0.278-0.336-0.572-0.656-0.878-0.966c-0.041-0.041-0.081-0.083-0.122-0.124
	c-0.134-0.132-0.258-0.275-0.397-0.402L156.44,4.396c-0.004-0.005-0.01-0.009-0.014-0.014c-0.308-0.307-0.629-0.594-0.957-0.869
	c-0.103-0.086-0.209-0.167-0.314-0.251c-0.241-0.192-0.486-0.376-0.738-0.552c-0.123-0.087-0.247-0.172-0.374-0.255
	c-0.264-0.173-0.533-0.335-0.806-0.49c-0.111-0.063-0.219-0.131-0.332-0.191c-0.363-0.194-0.733-0.372-1.109-0.535
	c-0.154-0.067-0.313-0.125-0.47-0.187c-0.248-0.098-0.497-0.19-0.75-0.274c-0.177-0.059-0.355-0.116-0.534-0.168
	c-0.283-0.083-0.569-0.154-0.857-0.22c-0.137-0.032-0.271-0.07-0.409-0.097c-0.417-0.083-0.838-0.145-1.261-0.192
	c-0.136-0.015-0.273-0.024-0.41-0.036c-0.345-0.029-0.69-0.046-1.037-0.052C145.988,0.011,145.911,0,145.831,0h-130
	c-8.284,0-15,6.716-15,15v300c0,8.284,6.716,15,15,15h240c14.804,0,28.587-4.423,40.126-11.998l30.938,30.937
	c2.929,2.929,6.768,4.394,10.607,4.394c3.839,0,7.678-1.464,10.606-4.394C353.966,343.082,353.966,333.584,348.108,327.727z
	 M299.165,256.667c0,23.894-19.439,43.333-43.334,43.333c-23.895,0-43.334-19.44-43.334-43.333s19.439-43.334,43.334-43.334
	C279.726,213.333,299.165,232.773,299.165,256.667z M160.831,51.213L219.618,110h-58.787V51.213z M30.831,30h100v95
	c0,8.284,6.716,15,15,15h95v44.881c-33.267,6.943-58.334,36.489-58.334,71.786c0,16.201,5.29,31.184,14.222,43.333H30.831V30z"/>
<g>
</g>
<g>
</g>
<g>
</g>
<g>
</g>
<g>
</g>
<g>
</g>
<g>
</g>
<g>
</g>
<g>
</g>
<g>
</g>
<g>
</g>
<g>
</g>
<g>
</g>
<g>
</g>
<g>
</g>
</svg>
