<?xml version="1.0" encoding="iso-8859-1"?>
<!-- Generator: Adobe Illustrator 19.0.0, SVG Export Plug-In . SVG Version: 6.00 Build 0)  -->
<svg version="1.1" id="Layer_1" xmlns="http://www.w3.org/2000/svg" xmlns:xlink="http://www.w3.org/1999/xlink" x="0px" y="0px"
	 viewBox="0 0 330 330" style="enable-background:new 0 0 330 330;" xml:space="preserve">
<g id="XMLID_237_">
	<path id="XMLID_238_" d="M315,60h-45V15c0-8.284-6.716-15-15-15H75c-8.284,0-15,6.716-15,15v45H15C6.716,60,0,66.716,0,75v180
		c0,8.284,6.716,15,15,15h45v45c0,8.284,6.716,15,15,15h180c8.284,0,15-6.716,15-15v-45h45c8.284,0,15-6.716,15-15V75
		C330,66.716,323.284,60,315,60z M90,30h150v30H90V30z M240,300H90v-90h150V300z M300,240h-30v-45c0-8.284-6.716-15-15-15H75
		c-8.284,0-15,6.716-15,15v45H30V90h45h180h45V240z"/>
	<path id="XMLID_243_" d="M195,240h-60c-8.284,0-15,6.716-15,15c0,8.284,6.716,15,15,15h60c8.284,0,15-6.716,15-15
		C210,246.716,203.284,240,195,240z"/>
	<path id="XMLID_244_" d="M244.39,124.39c-2.79,2.8-4.39,6.66-4.39,10.61c0,3.95,1.6,7.81,4.39,10.61c2.8,2.79,6.66,4.39,10.61,4.39
		s7.81-1.6,10.609-4.39c2.79-2.79,4.391-6.66,4.391-10.61c0-3.95-1.601-7.81-4.391-10.61C262.81,121.6,258.95,120,255,120
		S247.189,121.6,244.39,124.39z"/>
</g>
<g>
</g>
<g>
</g>
<g>
</g>
<g>
</g>
<g>
</g>
<g>
</g>
<g>
</g>
<g>
</g>
<g>
</g>
<g>
</g>
<g>
</g>
<g>
</g>
<g>
</g>
<g>
</g>
<g>
</g>
</svg>
