<?xml version="1.0" encoding="iso-8859-1"?>
<!-- Generator: Adobe Illustrator 19.0.0, SVG Export Plug-In . SVG Version: 6.00 Build 0)  -->
<svg version="1.1" id="Layer_1" xmlns="http://www.w3.org/2000/svg" xmlns:xlink="http://www.w3.org/1999/xlink" x="0px" y="0px"
	 viewBox="0 0 330 330" style="enable-background:new 0 0 330 330;" xml:space="preserve">
<path id="XMLID_341_" d="M325.606,84.668L245.334,4.394c-2.813-2.813-6.628-4.393-10.607-4.393h-39.708
	C195.013,0.001,195.006,0,195,0H75c-0.006,0-0.013,0.001-0.02,0.001H15c-8.284,0-15,6.716-15,15V315c0,8.284,6.716,15,15,15h60h180
	h60c8.284,0,15-6.716,15-15V95.274C330,91.296,328.42,87.48,325.606,84.668z M90,30.001h90V110H90V30.001z M90,300v-80h150v80H90z
	 M300,300h-30v-95c0-8.284-6.716-15-15-15H75c-8.284,0-15,6.716-15,15v95H30V30.001h30V125c0,8.284,6.716,15,15,15h120
	c8.284,0,15-6.716,15-15V30.001h18.514L300,101.487V300z"/>
<g>
</g>
<g>
</g>
<g>
</g>
<g>
</g>
<g>
</g>
<g>
</g>
<g>
</g>
<g>
</g>
<g>
</g>
<g>
</g>
<g>
</g>
<g>
</g>
<g>
</g>
<g>
</g>
<g>
</g>
</svg>
