<?xml version="1.0" encoding="iso-8859-1"?>
<!-- Generator: Adobe Illustrator 19.0.0, SVG Export Plug-In . SVG Version: 6.00 Build 0)  -->
<svg version="1.1" id="Layer_1" xmlns="http://www.w3.org/2000/svg" xmlns:xlink="http://www.w3.org/1999/xlink" x="0px" y="0px"
	 viewBox="0 0 320.001 320.001" style="enable-background:new 0 0 320.001 320.001;" xml:space="preserve">
<g id="XMLID_6_">
	<path id="XMLID_7_" d="M313.02,304.963h-21.353v-0.122c0-2.245,5.148-5.878,9.284-8.797c8.229-5.808,18.471-13.034,18.471-25.566
		c0-11.891-9.217-20.859-21.439-20.859c-11.702,0-20.527,8.044-20.527,18.711c0,6.19,4.029,8.387,7.479,8.387
		c4.938,0,7.889-3.677,7.889-7.23c0-2.21,0.567-4.746,4.994-4.746c5.978,0,6.151,5.298,6.151,5.902
		c0,4.762-6.181,9.213-12.157,13.519c-7.388,5.321-15.762,11.352-15.762,20.681v8.012c0,4.276,3.91,7.148,7.563,7.148h29.406
		c3.849,0,6.98-3.392,6.98-7.56C320.001,308.317,316.869,304.963,313.02,304.963z"/>
	<path id="XMLID_8_" d="M244.475,3.372c-6.421-5.232-15.87-4.269-21.104,2.154l-98.371,120.729L26.63,5.526
		C21.396-0.898,11.948-1.861,5.526,3.372c-6.423,5.233-7.387,14.682-2.154,21.104l102.28,125.525L3.372,275.526
		c-5.232,6.422-4.269,15.87,2.154,21.104c2.783,2.268,6.135,3.371,9.466,3.371c4.354,0,8.673-1.887,11.638-5.525l98.371-120.729
		l98.371,120.729c2.965,3.64,7.283,5.525,11.638,5.525c3.331,0,6.683-1.104,9.466-3.371c6.423-5.233,7.387-14.682,2.154-21.104
		l-102.28-125.525L246.63,24.475C251.862,18.053,250.898,8.605,244.475,3.372z"/>
</g>
<g>
</g>
<g>
</g>
<g>
</g>
<g>
</g>
<g>
</g>
<g>
</g>
<g>
</g>
<g>
</g>
<g>
</g>
<g>
</g>
<g>
</g>
<g>
</g>
<g>
</g>
<g>
</g>
<g>
</g>
</svg>
