<?xml version="1.0" encoding="iso-8859-1"?>
<!-- Generator: Adobe Illustrator 19.0.0, SVG Export Plug-In . SVG Version: 6.00 Build 0)  -->
<svg version="1.1" id="Layer_1" xmlns="http://www.w3.org/2000/svg" xmlns:xlink="http://www.w3.org/1999/xlink" x="0px" y="0px"
	 viewBox="0 0 320 320" style="enable-background:new 0 0 320 320;" xml:space="preserve">
<g id="XMLID_2_">
	<path id="XMLID_4_" d="M313.02,55.346h-21.352v-0.121c0-2.245,5.147-5.878,9.284-8.797c8.229-5.808,18.47-13.034,18.47-25.566
		c0-11.892-9.216-20.859-21.438-20.859c-11.702,0-20.527,8.044-20.527,18.711c0,6.19,4.028,8.387,7.479,8.387
		c4.938,0,7.889-3.677,7.889-7.231c0-2.21,0.567-4.746,4.994-4.746c5.979,0,6.152,5.298,6.152,5.902
		c0,4.762-6.181,9.213-12.157,13.518c-7.389,5.321-15.763,11.353-15.763,20.681v8.012c0,4.276,3.91,7.148,7.563,7.148h29.406
		c3.849,0,6.98-3.392,6.98-7.561C320,58.7,316.869,55.346,313.02,55.346z"/>
	<path id="XMLID_5_" d="M244.475,23.369c-6.421-5.231-15.87-4.268-21.104,2.154L125,146.252L26.629,25.524
		c-5.232-6.424-14.682-7.386-21.104-2.154c-6.423,5.233-7.387,14.682-2.154,21.104l102.28,125.525L3.372,295.524
		c-5.232,6.422-4.269,15.87,2.154,21.104c2.783,2.268,6.135,3.371,9.466,3.371c4.354,0,8.673-1.887,11.638-5.525L125,193.744
		l98.371,120.729c2.965,3.64,7.283,5.525,11.638,5.525c3.331,0,6.683-1.103,9.466-3.371c6.423-5.233,7.387-14.682,2.154-21.104
		l-102.28-125.525l102.28-125.525C251.862,38.051,250.898,28.603,244.475,23.369z"/>
</g>
<g>
</g>
<g>
</g>
<g>
</g>
<g>
</g>
<g>
</g>
<g>
</g>
<g>
</g>
<g>
</g>
<g>
</g>
<g>
</g>
<g>
</g>
<g>
</g>
<g>
</g>
<g>
</g>
<g>
</g>
</svg>
