<?xml version="1.0" encoding="iso-8859-1"?>
<!-- Generator: Adobe Illustrator 19.0.0, SVG Export Plug-In . SVG Version: 6.00 Build 0)  -->
<svg xmlns="http://www.w3.org/2000/svg" xmlns:xlink="http://www.w3.org/1999/xlink" version="1.1" id="Capa_1" x="0px" y="0px" viewBox="0 0 426.667 426.667" style="enable-background:new 0 0 426.667 426.667;" xml:space="preserve">
<g>
	<g>
		<path d="M426.667,110.4l-30.08-30.08l-60.907,68.373C291.84,99.413,231.04,69.44,162.347,69.44    c-61.653,0-118.187,24.747-162.347,64l30.293,30.293c36.267-31.787,82.133-51.627,132.053-51.627    c58.453,0,108.587,26.773,144.427,69.227l-61.44,69.013L160,165.013L0,325.227l32,32l128-128.213l85.333,85.333l86.293-97.067    c16,28.8,26.667,61.76,30.827,97.067h42.88c-4.693-49.173-20.16-93.653-43.627-130.88L426.667,110.4z"/>
	</g>
</g>
<g>
</g>
<g>
</g>
<g>
</g>
<g>
</g>
<g>
</g>
<g>
</g>
<g>
</g>
<g>
</g>
<g>
</g>
<g>
</g>
<g>
</g>
<g>
</g>
<g>
</g>
<g>
</g>
<g>
</g>
</svg>
