<?xml version="1.0" encoding="iso-8859-1"?>
<!-- Generator: Adobe Illustrator 19.0.0, SVG Export Plug-In . SVG Version: 6.00 Build 0)  -->
<svg xmlns="http://www.w3.org/2000/svg" xmlns:xlink="http://www.w3.org/1999/xlink" version="1.1" id="Capa_1" x="0px" y="0px" viewBox="0 0 384 384" style="enable-background:new 0 0 384 384;" xml:space="preserve">
<g>
	<g>
		<g>
			<path d="M49.707,22.613L22.613,49.707L96,123.093c0,44.373,33.28,68.48,83.413,83.413l74.88,74.88     c-7.253,10.24-22.4,19.413-51.627,19.413c-43.947,0-61.227-19.627-63.573-44.8H92.16c2.56,46.72,37.547,72.96,78.507,81.707V384     h64v-45.867c20.48-3.84,38.827-11.733,52.267-23.893l47.36,47.36l27.093-27.093L49.707,22.613z"/>
			<path d="M202.667,83.2L202.667,83.2c37.973,0,52.053,18.133,53.333,44.8h47.147c-1.493-36.693-23.893-70.4-68.48-81.28V0h-64     v46.08c-11.307,2.56-21.973,6.4-31.573,11.52l31.36,31.36C179.2,85.333,189.867,83.2,202.667,83.2z"/>
		</g>
	</g>
</g>
<g>
</g>
<g>
</g>
<g>
</g>
<g>
</g>
<g>
</g>
<g>
</g>
<g>
</g>
<g>
</g>
<g>
</g>
<g>
</g>
<g>
</g>
<g>
</g>
<g>
</g>
<g>
</g>
<g>
</g>
</svg>
