<?xml version="1.0" encoding="iso-8859-1"?>
<!-- Generator: Adobe Illustrator 19.0.0, SVG Export Plug-In . SVG Version: 6.00 Build 0)  -->
<svg xmlns="http://www.w3.org/2000/svg" xmlns:xlink="http://www.w3.org/1999/xlink" version="1.1" id="Capa_1" x="0px" y="0px" viewBox="0 0 426.667 426.667" style="enable-background:new 0 0 426.667 426.667;" xml:space="preserve">
<g>
	<g>
		<path d="M213.333,0C95.467,0,0,95.467,0,213.333s95.467,213.333,213.333,213.333S426.667,331.2,426.667,213.333S331.2,0,213.333,0    z M243.52,343.253V384h-56.853v-41.173c-36.373-7.787-67.52-31.147-69.76-72.64h41.707c2.133,22.4,17.493,39.787,56.533,39.787    c41.92,0,51.2-20.907,51.2-33.92c0-17.6-9.493-34.347-56.853-45.653c-52.907-12.693-89.173-34.56-89.173-78.293    c0-36.587,29.547-60.48,66.347-68.48v-40.96h56.853V84.16c39.68,9.707,59.52,39.68,60.907,72.213H262.4    c-1.173-23.68-13.653-39.787-47.36-39.787c-32,0-51.2,14.4-51.2,35.093c0,18.027,13.867,29.547,56.853,40.747    c43.093,11.2,89.173,29.547,89.173,83.413C309.867,314.773,280.427,336.213,243.52,343.253z"/>
	</g>
</g>
<g>
</g>
<g>
</g>
<g>
</g>
<g>
</g>
<g>
</g>
<g>
</g>
<g>
</g>
<g>
</g>
<g>
</g>
<g>
</g>
<g>
</g>
<g>
</g>
<g>
</g>
<g>
</g>
<g>
</g>
</svg>
