<?xml version="1.0" encoding="iso-8859-1"?>
<!-- Generator: Adobe Illustrator 19.0.0, SVG Export Plug-In . SVG Version: 6.00 Build 0)  -->
<svg xmlns="http://www.w3.org/2000/svg" xmlns:xlink="http://www.w3.org/1999/xlink" version="1.1" id="Capa_1" x="0px" y="0px" viewBox="0 0 426.667 426.667" style="enable-background:new 0 0 426.667 426.667;" xml:space="preserve">
<g>
	<g>
		<path d="M373.333,160c-21.867,0-40.64,13.12-48.853,32h-62.293c-8.213-18.88-26.987-32-48.853-32c-21.867,0-40.64,13.12-48.853,32    h-62.293c-8.213-18.88-26.987-32-48.853-32C23.787,160,0,183.787,0,213.333s23.787,53.333,53.333,53.333    c21.867,0,40.64-13.12,48.853-32h62.293c8.213,18.88,26.987,32,48.853,32c21.867,0,40.64-13.12,48.853-32h62.293    c8.213,18.88,26.987,32,48.853,32c29.547,0,53.333-23.787,53.333-53.333S402.88,160,373.333,160z"/>
	</g>
</g>
<g>
</g>
<g>
</g>
<g>
</g>
<g>
</g>
<g>
</g>
<g>
</g>
<g>
</g>
<g>
</g>
<g>
</g>
<g>
</g>
<g>
</g>
<g>
</g>
<g>
</g>
<g>
</g>
<g>
</g>
</svg>
