<?xml version="1.0" encoding="iso-8859-1"?>
<!-- Generator: Adobe Illustrator 19.0.0, SVG Export Plug-In . SVG Version: 6.00 Build 0)  -->
<svg xmlns="http://www.w3.org/2000/svg" xmlns:xlink="http://www.w3.org/1999/xlink" version="1.1" id="Capa_1" x="0px" y="0px" viewBox="0 0 426.667 426.667" style="enable-background:new 0 0 426.667 426.667;" xml:space="preserve">
<g>
	<g>
		<g>
			<path d="M320,106.667h-85.333V147.2H320c36.48,0,66.133,29.653,66.133,66.133S356.48,279.467,320,279.467h-85.333V320H320     c58.88,0,106.667-47.787,106.667-106.667S378.88,106.667,320,106.667z"/>
			<path d="M40.533,213.333c0-36.48,29.653-66.133,66.133-66.133H192v-40.533h-85.333C47.787,106.667,0,154.453,0,213.333     S47.787,320,106.667,320H192v-40.533h-85.333C70.187,279.467,40.533,249.813,40.533,213.333z"/>
			<rect x="128" y="192" width="170.667" height="42.667"/>
		</g>
	</g>
</g>
<g>
</g>
<g>
</g>
<g>
</g>
<g>
</g>
<g>
</g>
<g>
</g>
<g>
</g>
<g>
</g>
<g>
</g>
<g>
</g>
<g>
</g>
<g>
</g>
<g>
</g>
<g>
</g>
<g>
</g>
</svg>
