<?xml version="1.0" encoding="iso-8859-1"?>
<!-- Generator: Adobe Illustrator 19.0.0, SVG Export Plug-In . SVG Version: 6.00 Build 0)  -->
<svg xmlns="http://www.w3.org/2000/svg" xmlns:xlink="http://www.w3.org/1999/xlink" version="1.1" id="Capa_1" x="0px" y="0px" viewBox="0 0 469.333 469.333" style="enable-background:new 0 0 469.333 469.333;" xml:space="preserve">
<g>
	<g>
		<g>
			<path d="M469.333,128V0h-128v42.667H128V0H0v128h42.667v213.333H0v128h128v-42.667h213.333v42.667h128v-128h-42.667V128H469.333z      M42.667,42.667h42.667v42.667H42.667V42.667z M85.333,426.667H42.667V384h42.667V426.667z M341.333,384H128v-42.667H85.333V128     H128V85.333h213.333V128H384v213.333h-42.667V384z M426.667,426.667H384V384h42.667V426.667z M384,85.333V42.667h42.667v42.667     H384z"/>
			<path d="M219.627,128l-72.533,192h34.667l15.573-42.667h74.347L287.467,320h34.773L249.6,128H219.627z M206.613,250.453     l27.84-81.707l27.84,81.707H206.613z"/>
		</g>
	</g>
</g>
<g>
</g>
<g>
</g>
<g>
</g>
<g>
</g>
<g>
</g>
<g>
</g>
<g>
</g>
<g>
</g>
<g>
</g>
<g>
</g>
<g>
</g>
<g>
</g>
<g>
</g>
<g>
</g>
<g>
</g>
</svg>
