<?xml version="1.0" encoding="iso-8859-1"?>
<!-- Generator: Adobe Illustrator 19.0.0, SVG Export Plug-In . SVG Version: 6.00 Build 0)  -->
<svg xmlns="http://www.w3.org/2000/svg" xmlns:xlink="http://www.w3.org/1999/xlink" version="1.1" id="Capa_1" x="0px" y="0px" viewBox="0 0 384 384" style="enable-background:new 0 0 384 384;" xml:space="preserve">
<g>
	<g>
		<path d="M200.373,168.533L200.373,168.533c-48.427-12.587-64-25.493-64-45.76c0-23.253,21.44-39.573,57.6-39.573    c37.973,0,52.053,18.133,53.333,44.8h47.147c-1.387-36.8-23.893-70.293-68.48-81.28V0h-64v46.08    c-41.387,9.067-74.667,35.733-74.667,77.013c0,49.28,40.853,73.813,100.267,88.107c53.44,12.8,64,31.467,64,51.52    c0,14.613-10.347,38.08-57.6,38.08c-43.947,0-61.333-19.733-63.573-44.8H83.36c2.667,46.72,37.547,72.853,78.613,81.707V384h64    v-45.867c41.493-8,74.667-32,74.667-75.84C300.64,201.92,248.8,181.227,200.373,168.533z"/>
	</g>
</g>
<g>
</g>
<g>
</g>
<g>
</g>
<g>
</g>
<g>
</g>
<g>
</g>
<g>
</g>
<g>
</g>
<g>
</g>
<g>
</g>
<g>
</g>
<g>
</g>
<g>
</g>
<g>
</g>
<g>
</g>
</svg>
