<?xml version="1.0" encoding="iso-8859-1"?>
<!-- Generator: Adobe Illustrator 19.0.0, SVG Export Plug-In . SVG Version: 6.00 Build 0)  -->
<svg version="1.1" id="Layer_1" xmlns="http://www.w3.org/2000/svg" xmlns:xlink="http://www.w3.org/1999/xlink" x="0px" y="0px"
	 viewBox="0 0 512.043 512.043" style="enable-background:new 0 0 512.043 512.043;" xml:space="preserve">
<g>
	<g>
		<g>
			<path d="M384,213.344V97.845L286.165,0.011H42.667C19.136,0.011,0,19.168,0,42.677v384c0,23.531,19.136,42.667,42.667,42.667
				h193.685c-14.571-25.109-23.019-54.208-23.019-85.333C213.333,289.76,289.728,213.344,384,213.344z M256,21.344l106.667,106.667
				H256V21.344z M64,192.011h192v42.667H64V192.011z M192,320.011H64v-42.667h128V320.011z"/>
			<path d="M512.043,405.344v-42.667h-23.509c-2.795-13.611-8.235-26.219-15.637-37.419l16.725-16.725l-30.165-30.165
				l-16.747,16.704c-11.179-7.381-23.765-12.821-37.355-15.573v-23.488h-42.667v23.509c-13.611,2.752-26.197,8.192-37.397,15.595
				l-16.704-16.704l-30.165,30.187l16.704,16.704c-7.424,11.179-12.864,23.808-15.616,37.376H256v42.667h23.509
				c2.773,13.611,8.213,26.219,15.616,37.419l-16.704,16.725l30.187,30.144l16.683-16.725c11.2,7.424,23.808,12.864,37.419,15.616
				v23.509h42.667v-23.531c13.589-2.773,26.197-8.213,37.397-15.616l16.725,16.704l30.144-30.165l-16.725-16.704
				c7.424-11.179,12.843-23.787,15.616-37.376H512.043z M384,426.677c-23.573,0-42.667-19.115-42.667-42.667
				s19.093-42.667,42.667-42.667c23.552,0,42.667,19.115,42.667,42.667S407.552,426.677,384,426.677z"/>
		</g>
	</g>
</g>
<g>
</g>
<g>
</g>
<g>
</g>
<g>
</g>
<g>
</g>
<g>
</g>
<g>
</g>
<g>
</g>
<g>
</g>
<g>
</g>
<g>
</g>
<g>
</g>
<g>
</g>
<g>
</g>
<g>
</g>
</svg>
