<?xml version="1.0" encoding="iso-8859-1"?>
<!-- Generator: Adobe Illustrator 16.0.0, SVG Export Plug-In . SVG Version: 6.00 Build 0)  -->
<!DOCTYPE svg PUBLIC "-//W3C//DTD SVG 1.1//EN" "http://www.w3.org/Graphics/SVG/1.1/DTD/svg11.dtd">
<svg version="1.1" id="Capa_1" xmlns="http://www.w3.org/2000/svg" xmlns:xlink="http://www.w3.org/1999/xlink" x="0px" y="0px"
	 width="524.561px" height="524.561px" viewBox="0 0 524.561 524.561" style="enable-background:new 0 0 524.561 524.561;"
	 xml:space="preserve">
<g>
	<g>
		<path d="M363.898,303.669c48.851-76.402,39.945-179.065-26.823-245.834c-77.112-77.112-202.125-77.112-279.238,0
			c-77.112,77.112-77.112,202.131,0,279.237c66.763,66.764,169.432,75.674,245.829,26.824l153.862,153.863
			c9.07,9.069,23.776,9.069,32.853,0l27.375-27.375c9.069-9.07,9.069-23.782,0-32.853L363.898,303.669z M323.36,217.407
			c0,6.763-5.484,12.24-12.24,12.24H86.717c-6.756,0-12.24-5.477-12.24-12.24v-32.638c0-6.762,5.483-12.24,12.24-12.24H311.12
			c6.756,0,12.24,5.478,12.24,12.24V217.407z"/>
	</g>
</g>
<g>
</g>
<g>
</g>
<g>
</g>
<g>
</g>
<g>
</g>
<g>
</g>
<g>
</g>
<g>
</g>
<g>
</g>
<g>
</g>
<g>
</g>
<g>
</g>
<g>
</g>
<g>
</g>
<g>
</g>
</svg>
