<?xml version="1.0"?>
<svg xmlns="http://www.w3.org/2000/svg" xmlns:xlink="http://www.w3.org/1999/xlink" version="1.1" id="Capa_1" x="0px" y="0px" viewBox="0 0 49.861 49.861" style="enable-background:new 0 0 49.861 49.861;" xml:space="preserve" width="512px" height="512px"><g transform="matrix(0.655659 0 0 0.655659 8.58458 8.58458)"><g>
	<path d="M45.963,21.035H28.824V3.896C28.824,1.745,27.08,0,24.928,0s-3.896,1.744-3.896,3.896v17.139H3.895   C1.744,21.035,0,22.779,0,24.931s1.743,3.895,3.895,3.895h17.139v17.139c0,2.151,1.744,3.896,3.896,3.896s3.896-1.744,3.896-3.896   V28.826h17.139c2.152,0,3.896-1.744,3.896-3.895S48.115,21.035,45.963,21.035z" data-original="#010002" class="active-path" data-old_color="#010002" fill="#000"/>
</g></g> </svg>
