<?xml version="1.0" encoding="iso-8859-1"?>
<!-- Generator: Adobe Illustrator 16.0.0, SVG Export Plug-In . SVG Version: 6.00 Build 0)  -->
<!DOCTYPE svg PUBLIC "-//W3C//DTD SVG 1.1//EN" "http://www.w3.org/Graphics/SVG/1.1/DTD/svg11.dtd">
<svg version="1.1" id="Capa_1" xmlns="http://www.w3.org/2000/svg" xmlns:xlink="http://www.w3.org/1999/xlink" x="0px" y="0px"
	 width="519.737px" height="519.736px" viewBox="0 0 519.737 519.736" style="enable-background:new 0 0 519.737 519.736;"
	 xml:space="preserve">
<g>
	<g>
		<path d="M388.99,419.641c1.064-1.99,0.954-4.4-0.294-6.279L252.152,207.87l124.132-193.82c1.205-1.885,1.291-4.278,0.214-6.236
			c-1.071-1.964-3.134-3.182-5.367-3.182h-94.988c-2.13,0-4.106,1.107-5.221,2.925l-74.59,121.99L120.156,7.507
			c-1.12-1.793-3.079-2.876-5.19-2.876H19.14c-2.24,0-4.303,1.224-5.374,3.194s-0.979,4.37,0.239,6.249l123.569,190.791L1,413.398
			c-1.23,1.879-1.334,4.283-0.263,6.26c1.071,1.977,3.133,3.213,5.385,3.213h98.312c2.081,0,4.021-1.059,5.146-2.809l85.129-132.395
			l84.86,132.389c1.126,1.756,3.066,2.814,5.153,2.814h98.875C385.85,422.871,387.924,421.629,388.99,419.641z"/>
		<path d="M476.144,450.711c11.463-10.514,19.229-18.42,23.74-24.168c6.762-8.604,11.799-17.025,14.976-25.018
			c3.237-8.164,4.877-16.873,4.877-25.883c0-16.223-5.875-29.986-17.46-40.924c-11.487-10.838-27.277-16.334-46.935-16.334
			c-17.84,0-33.005,4.682-45.073,13.916c-12.362,9.457-19.78,24.916-22.045,45.938c-0.177,1.621,0.307,3.244,1.335,4.51
			c1.027,1.268,2.521,2.068,4.143,2.234l35.093,3.508c0.201,0.018,0.409,0.029,0.611,0.029c1.444,0,2.846-0.508,3.954-1.449
			c1.267-1.072,2.044-2.613,2.147-4.273c0.558-8.598,2.559-14.883,5.784-18.17c3.176-3.236,7.484-4.811,13.176-4.811
			c5.802,0,10.104,1.482,13.158,4.535c3.054,3.055,4.535,7.559,4.535,13.783c0,5.838-2.1,11.945-6.243,18.164
			c-2.245,3.285-9.008,11.047-28.28,28.996c-20.318,18.855-33.629,33.703-40.674,45.367c-7.117,11.787-11.45,24.455-12.876,37.662
			c-0.189,1.727,0.367,3.453,1.53,4.75c1.162,1.297,2.814,2.031,4.553,2.031h123.447c3.378,0,6.119-2.742,6.119-6.119v-32.711
			c0-3.379-2.741-6.121-6.119-6.121h-57.785C458.849,466.85,465.679,460.314,476.144,450.711z"/>
	</g>
</g>
<g>
</g>
<g>
</g>
<g>
</g>
<g>
</g>
<g>
</g>
<g>
</g>
<g>
</g>
<g>
</g>
<g>
</g>
<g>
</g>
<g>
</g>
<g>
</g>
<g>
</g>
<g>
</g>
<g>
</g>
</svg>
