<?xml version="1.0" encoding="iso-8859-1"?>
<!-- Generator: Adobe Illustrator 19.0.0, SVG Export Plug-In . SVG Version: 6.00 Build 0)  -->
<svg version="1.1" id="Layer_1" xmlns="http://www.w3.org/2000/svg" xmlns:xlink="http://www.w3.org/1999/xlink" x="0px" y="0px"
	 viewBox="0 0 469.333 469.333" style="enable-background:new 0 0 469.333 469.333;" xml:space="preserve">
<g>
	<g>
		<g>
			<path  fill="#fafafa" d="M309.333,128H160c-5.896,0-10.667,4.771-10.667,10.667s4.771,10.667,10.667,10.667h149.333
				c5.896,0,10.667-4.771,10.667-10.667S315.229,128,309.333,128z"/>
			<path  fill="#fafafa" d="M245.333,170.667H160c-5.896,0-10.667,4.771-10.667,10.667c0,5.896,4.771,10.667,10.667,10.667h85.333
				c5.896,0,10.667-4.771,10.667-10.667C256,175.437,251.229,170.667,245.333,170.667z"/>
			<path  fill="#fafafa" d="M457.344,381.521l-30.677-53.688v-18.5c0-4.661-3.025-8.513-7.186-9.965c4.63-8.582,7.186-19.549,7.186-32.702
				c0-33.396-15.948-53.333-42.667-53.333V96c0-1.426-0.29-2.818-0.828-4.105c-0.542-1.301-1.328-2.47-2.31-3.449L295.555,3.138
				c-0.979-0.982-2.148-1.768-3.449-2.31C290.818,0.29,289.426,0,288,0H128c-23.531,0-42.667,19.135-42.667,42.667v170.667
				c-23.72,0-38.884,15.773-42.005,42.667H32c-4.042,0-7.729,2.281-9.542,5.896L1.125,304.562C0.385,306.042,0,307.677,0,309.333
				v21.333c0,5.896,4.771,10.667,10.667,10.667s10.667-4.771,10.667-10.667v-18.813l17.26-34.521h5.169
				c1.034,8.348,2.827,15.987,6.09,22.035c-4.161,1.452-7.186,5.303-7.186,9.965v18.5L11.99,381.521
				C4.146,395.24,0,410.854,0,426.667c0,23.531,19.135,42.667,42.667,42.667h384c23.531,0,42.667-19.135,42.667-42.667
				C469.333,410.854,465.188,395.24,457.344,381.521z M106.667,42.667c0-11.76,9.573-21.333,21.333-21.333h149.333V64
				c0,23.531,19.135,42.667,42.667,42.667h42.667v106.667h-256V42.667z M202.667,320c-5.896,0-10.667-4.771-10.667-10.667V288
				c0-5.896,4.771-10.667,10.667-10.667h64c5.896,0,10.667,4.771,10.667,10.667v21.333c0,5.896-4.771,10.667-10.667,10.667H202.667z
				 M256,352c0,5.896-4.771,10.667-10.667,10.667H224c-5.896,0-10.667-4.771-10.667-10.667c0-5.896,4.771-10.667,10.667-10.667
				h21.333C251.229,341.333,256,346.104,256,352z M96,405.333H74.667c-5.896,0-10.667-4.771-10.667-10.667
				C64,388.771,68.771,384,74.667,384H96c5.896,0,10.667,4.771,10.667,10.667C106.667,400.563,101.896,405.333,96,405.333z
				 M117.333,362.667H96c-5.896,0-10.667-4.771-10.667-10.667c0-5.896,4.771-10.667,10.667-10.667h21.333
				c5.896,0,10.667,4.771,10.667,10.667C128,357.896,123.229,362.667,117.333,362.667z M160,405.333h-21.333
				c-5.896,0-10.667-4.771-10.667-10.667c0-5.896,4.771-10.667,10.667-10.667H160c5.896,0,10.667,4.771,10.667,10.667
				C170.667,400.563,165.896,405.333,160,405.333z M181.333,362.667H160c-5.896,0-10.667-4.771-10.667-10.667
				c0-5.896,4.771-10.667,10.667-10.667h21.333c5.896,0,10.667,4.771,10.667,10.667C192,357.896,187.229,362.667,181.333,362.667z
				 M266.667,405.333h-64c-5.896,0-10.667-4.771-10.667-10.667c0-5.896,4.771-10.667,10.667-10.667h64
				c5.896,0,10.667,4.771,10.667,10.667C277.333,400.563,272.562,405.333,266.667,405.333z M277.333,352
				c0-5.896,4.771-10.667,10.667-10.667h21.333c5.896,0,10.667,4.771,10.667,10.667c0,5.896-4.771,10.667-10.667,10.667H288
				C282.104,362.667,277.333,357.896,277.333,352z M330.667,405.333h-21.333c-5.896,0-10.667-4.771-10.667-10.667
				c0-5.896,4.771-10.667,10.667-10.667h21.333c5.896,0,10.667,4.771,10.667,10.667
				C341.333,400.563,336.563,405.333,330.667,405.333z M341.333,352c0-5.896,4.771-10.667,10.667-10.667h21.333
				c5.896,0,10.667,4.771,10.667,10.667c0,5.896-4.771,10.667-10.667,10.667H352C346.104,362.667,341.333,357.896,341.333,352z
				 M394.667,405.333h-21.333c-5.896,0-10.667-4.771-10.667-10.667c0-5.896,4.771-10.667,10.667-10.667h21.333
				c5.896,0,10.667,4.771,10.667,10.667C405.333,400.563,400.563,405.333,394.667,405.333z"/>
		</g>
	</g>
</g>
<g>
</g>
<g>
</g>
<g>
</g>
<g>
</g>
<g>
</g>
<g>
</g>
<g>
</g>
<g>
</g>
<g>
</g>
<g>
</g>
<g>
</g>
<g>
</g>
<g>
</g>
<g>
</g>
<g>
</g>
</svg>
