<?xml version="1.0" encoding="iso-8859-1"?>
<!-- Generator: Adobe Illustrator 16.0.0, SVG Export Plug-In . SVG Version: 6.00 Build 0)  -->
<!DOCTYPE svg PUBLIC "-//W3C//DTD SVG 1.1//EN" "http://www.w3.org/Graphics/SVG/1.1/DTD/svg11.dtd">
<svg version="1.1" id="Capa_1" xmlns="http://www.w3.org/2000/svg" xmlns:xlink="http://www.w3.org/1999/xlink" x="0px" y="0px"
	 width="524.561px" height="524.561px" viewBox="0 0 524.561 524.561" style="enable-background:new 0 0 524.561 524.561;"
	 xml:space="preserve">
<g>
	<g>
		<path d="M363.896,303.668c48.855-76.401,39.944-179.064-26.824-245.833c-77.112-77.112-202.125-77.112-279.237,0
			c-77.112,77.112-77.112,202.131,0,279.238c66.763,66.762,169.433,75.674,245.834,26.822l153.863,153.863
			c9.069,9.07,23.782,9.07,32.852,0l27.375-27.375c9.07-9.068,9.07-23.781,0-32.852L363.896,303.668z M316.986,210.455
			c0,10.38-8.415,18.801-18.801,18.801h-72.062v72.063c0,10.379-8.415,18.801-18.801,18.801h-18.801
			c-10.38,0-18.801-8.416-18.801-18.801v-72.063H97.664c-10.38,0-18.801-8.415-18.801-18.801v-18.8
			c0-10.379,8.415-18.801,18.801-18.801h72.062v-72.057c0-10.379,8.415-18.8,18.801-18.8h18.801c10.38,0,18.801,8.415,18.801,18.8
			v72.063h72.062c10.38,0,18.801,8.415,18.801,18.8v18.794H316.986z"/>
	</g>
</g>
<g>
</g>
<g>
</g>
<g>
</g>
<g>
</g>
<g>
</g>
<g>
</g>
<g>
</g>
<g>
</g>
<g>
</g>
<g>
</g>
<g>
</g>
<g>
</g>
<g>
</g>
<g>
</g>
<g>
</g>
</svg>
